<?xml version="1.0" standalone="no"?>
<!DOCTYPE svg PUBLIC "-//W3C//DTD SVG 20010904//EN"
 "http://www.w3.org/TR/2001/REC-SVG-20010904/DTD/svg10.dtd">
<svg version="1.0" xmlns="http://www.w3.org/2000/svg"
 width="296.000000pt" height="296.000000pt" viewBox="0 0 296.000000 296.000000"
 preserveAspectRatio="xMidYMid meet">
<metadata>
Created by potrace 1.14, written by Peter Selinger 2001-2017
</metadata>
<g transform="translate(0.000000,296.000000) scale(0.100000,-0.100000)"
fill="#000000" stroke="none">
<path d="M1377 2698 c-109 -139 -323 -413 -504 -642 -67 -85 -119 -157 -115
-159 4 -2 198 -3 432 -1 234 1 559 3 723 3 l297 2 -20 21 c-11 12 -20 26 -20
30 0 5 -5 6 -10 3 -6 -4 -9 -1 -8 7 2 7 -3 12 -10 10 -8 -1 -11 2 -7 7 3 6
-47 77 -112 160 -409 520 -538 681 -544 681 -4 0 -50 -55 -102 -122z m763
-774 c0 -8 -19 -13 -24 -6 -3 5 1 9 9 9 8 0 15 -2 15 -3z m34 -2 c3 -5 -1 -9
-9 -9 -8 0 -12 4 -9 9 3 4 7 8 9 8 2 0 6 -4 9 -8z"/>
<path d="M1546 2788 c195 -255 646 -813 655 -810 6 1 8 -1 5 -6 -2 -4 -1 -14
4 -22 7 -12 11 -12 25 0 21 17 43 21 50 10 3 -5 -3 -7 -14 -5 -25 5 -49 -21
-34 -36 13 -13 77 17 68 31 -3 6 1 7 9 4 9 -3 16 -1 16 6 0 6 4 9 9 5 6 -3 20
5 32 17 12 13 18 17 14 9 -6 -10 -4 -12 4 -7 7 5 10 14 7 22 -3 7 0 16 6 20 6
4 8 3 5 -3 -4 -6 -1 -13 7 -16 8 -3 17 1 20 9 3 9 10 12 16 9 5 -3 10 -1 10 5
0 6 4 8 10 5 6 -3 7 1 4 10 -5 11 -2 14 10 9 11 -4 33 5 59 23 23 16 57 35 75
43 18 7 35 16 37 20 7 11 -132 93 -144 86 -5 -4 -13 -1 -17 5 -5 8 -3 9 6 4 9
-5 11 -4 6 3 -4 7 -11 12 -16 12 -5 0 -45 22 -89 49 -44 27 -128 77 -188 112
-59 34 -164 94 -233 134 -69 40 -197 114 -284 164 -88 51 -155 86 -150 79z
m1002 -599 c2 -9 0 -10 -5 -4 -4 6 -18 10 -31 9 -12 -1 -24 2 -27 6 -2 3 10 6
27 5 18 -1 34 -8 36 -16z m-158 -9 c0 -5 -2 -10 -4 -10 -3 0 -8 5 -11 10 -3 6
-1 10 4 10 6 0 11 -4 11 -10z m175 -21 c-3 -12 -7 -24 -10 -27 -3 -3 -3 5 -1
19 6 30 5 29 10 29 3 0 3 -10 1 -21z m41 -17 c1 -17 -2 -20 -11 -12 -9 8 -14
6 -19 -5 -3 -8 -10 -15 -16 -15 -5 0 -2 9 7 19 9 11 20 18 25 15 4 -3 8 -1 8
5 0 5 -5 12 -10 14 -6 3 -5 4 2 3 7 -1 14 -12 14 -24z m-66 14 c0 -2 -7 -7
-16 -10 -8 -3 -12 -2 -9 4 6 10 25 14 25 6z m110 -11 c0 -2 -6 -5 -13 -8 -8
-3 -14 1 -14 8 0 7 6 11 14 8 7 -3 13 -6 13 -8z m-230 -20 c-7 -8 -17 -15 -23
-15 -6 0 -2 7 9 15 25 19 30 19 14 0z m55 -3 c-3 -3 -11 0 -18 7 -9 10 -8 11
6 5 10 -3 15 -9 12 -12z m35 -2 c0 -5 -4 -10 -10 -10 -5 0 -10 5 -10 10 0 6 5
10 10 10 6 0 10 -4 10 -10z m-200 -20 c0 -5 -5 -10 -11 -10 -5 0 -7 5 -4 10 3
6 8 10 11 10 2 0 4 -4 4 -10z m235 0 c3 -5 1 -10 -4 -10 -6 0 -11 5 -11 10 0
6 2 10 4 10 3 0 8 -4 11 -10z m-141 -29 c-2 -3 -12 3 -22 13 -16 17 -16 18 5
5 12 -7 20 -15 17 -18z m120 13 c3 -8 2 -12 -4 -9 -6 3 -10 10 -10 16 0 14 7
11 14 -7z m-54 -4 c0 -5 -4 -10 -10 -10 -5 0 -10 5 -10 10 0 6 5 10 10 10 6 0
10 -4 10 -10z m35 -18 c-3 -3 -11 0 -18 7 -9 10 -8 11 6 5 10 -3 15 -9 12 -12z
m-137 -28 c1 -1 -5 -4 -15 -6 -13 -4 -19 0 -19 13 0 14 3 16 16 6 8 -6 16 -12
18 -13z m63 -1 c-12 -20 -14 -14 -5 12 4 9 9 14 11 11 3 -2 0 -13 -6 -23z
m-94 -45 c-3 -8 -6 -5 -6 6 -1 11 2 17 5 13 3 -3 4 -12 1 -19z"/>
<path d="M1355 2761 c-27 -15 -138 -79 -245 -140 -107 -62 -332 -192 -500
-288 -168 -96 -308 -178 -313 -182 -4 -4 26 -25 65 -48 40 -22 136 -77 213
-122 l140 -81 25 32 c60 77 384 488 513 652 134 169 162 206 155 206 -2 0 -25
-13 -53 -29z"/>
<path d="M273 1474 c0 -354 3 -641 6 -638 3 2 13 24 22 47 33 86 348 864 374
926 21 51 24 66 13 72 -49 31 -350 204 -379 219 l-36 19 0 -645z"/>
<path d="M753 1856 c8 -19 291 -511 379 -658 36 -59 68 -105 72 -101 4 4 4 0
1 -8 -3 -9 1 -22 10 -29 8 -7 15 -19 15 -26 0 -8 4 -14 10 -14 5 0 9 -3 8 -7
-4 -14 33 -74 41 -68 5 2 8 -3 7 -13 0 -9 6 -17 14 -17 8 0 26 -8 39 -17 13
-10 29 -14 35 -11 5 4 0 11 -12 16 -12 6 -22 15 -22 20 0 6 3 8 6 4 4 -3 15 4
26 16 l20 22 -17 -28 c-17 -29 -17 -29 7 -22 12 3 18 3 12 -2 -7 -5 -4 -14 8
-25 17 -17 18 -17 16 8 -2 15 -8 28 -15 31 -18 7 7 43 29 43 23 0 23 -8 1 -33
-14 -16 -15 -19 -3 -15 8 2 19 14 25 26 5 12 15 20 22 18 6 -3 17 1 23 9 9 11
4 13 -33 11 -39 -3 -44 -1 -43 17 1 21 26 38 26 17 0 -6 -4 -8 -10 -5 -5 3
-10 2 -10 -4 0 -12 19 -25 27 -17 3 3 6 17 6 31 0 14 4 25 9 25 5 0 6 -4 3
-10 -3 -5 -2 -10 3 -10 20 0 20 14 2 38 -11 13 -20 30 -20 36 0 6 6 3 12 -8
27 -48 58 -66 58 -35 0 6 -5 7 -12 3 -6 -4 -3 5 8 19 13 18 25 25 39 21 18 -4
17 -3 -4 16 l-24 21 -14 -32 c-11 -26 -15 -29 -28 -19 -10 8 -13 21 -9 33 4
14 3 17 -6 12 -9 -5 -11 -4 -6 4 11 17 28 2 21 -20 -5 -14 -2 -17 8 -13 8 3
17 14 20 25 5 17 8 18 31 8 14 -7 26 -15 26 -18 0 -4 9 -7 20 -8 30 -3 14 16
-34 38 -22 10 -36 19 -29 19 7 0 23 -5 37 -11 46 -21 66 16 38 69 -7 12 -9 22
-4 22 6 0 12 -10 15 -22 5 -18 8 -19 21 -8 9 7 16 8 16 2 0 -5 -7 -12 -15 -16
-8 -3 -15 -11 -15 -17 0 -8 4 -8 15 1 12 10 15 10 15 0 0 -8 3 -10 7 -6 12 11
12 40 1 53 -9 11 -14 11 -27 1 -14 -12 -14 -11 -2 5 12 15 11 17 -10 18 -13 0
-18 3 -11 6 7 3 18 3 25 0 7 -2 15 -5 20 -6 4 0 21 -8 38 -17 41 -21 50 -10
10 13 -17 10 -29 24 -26 31 2 6 -1 12 -7 12 -6 0 -8 3 -5 6 9 9 38 -16 32 -26
-4 -7 17 -20 31 -20 10 0 -3 26 -20 43 -10 9 -14 17 -9 17 6 0 16 -7 23 -15
13 -15 30 -12 30 6 0 6 -4 7 -10 4 -5 -3 -10 -2 -10 3 0 5 14 9 30 10 17 0 30
-3 30 -8 0 -5 -8 -7 -17 -4 -15 5 -15 3 1 -10 16 -12 22 -13 28 -3 4 6 6 19 3
27 -2 8 1 24 8 36 12 21 12 21 35 -7 13 -16 18 -29 12 -29 -6 0 -9 -4 -5 -9 3
-6 -3 -14 -12 -20 -14 -8 -15 -11 -3 -11 12 0 11 -3 -3 -11 -9 -6 -14 -16 -11
-22 5 -8 3 -8 -7 1 -17 16 -37 16 -21 0 7 -7 12 -17 12 -22 0 -6 -5 -4 -10 4
-9 13 -10 13 -11 0 -1 -8 -1 -19 0 -24 1 -5 -5 -4 -13 3 -9 7 -13 17 -10 22 3
5 1 9 -5 9 -19 0 -21 -19 -4 -32 20 -15 30 -44 12 -32 -8 5 -9 3 -4 -6 6 -9 4
-11 -5 -5 -9 5 -11 4 -6 -3 5 -8 1 -10 -11 -6 -15 6 -15 4 2 -10 l20 -16 -20
6 c-13 4 -16 3 -8 -3 9 -6 7 -12 -7 -21 -11 -7 -20 -8 -20 -4 0 5 -7 9 -16 9
-15 0 -15 -1 0 -12 15 -11 15 -13 1 -19 -10 -3 -13 -11 -9 -18 5 -8 0 -7 -11
2 -17 13 -18 13 -10 0 8 -13 7 -13 -11 0 -18 14 -18 13 1 -9 11 -14 14 -21 6
-16 -9 5 -12 4 -7 -3 7 -11 -22 -9 -47 3 -6 4 -3 -1 7 -9 15 -12 16 -16 5 -16
-11 0 -11 -2 -2 -8 10 -7 10 -12 -1 -27 -8 -11 -12 -25 -9 -32 3 -7 0 -13 -7
-13 -6 0 -9 4 -5 9 3 5 0 13 -6 17 -7 4 -9 3 -5 -4 7 -11 -19 -11 -30 1 -4 4
-12 7 -18 7 -5 0 -2 -6 9 -13 14 -11 15 -16 5 -22 -9 -6 -11 -4 -5 5 5 9 4 11
-3 6 -7 -4 -12 -2 -12 5 0 7 -2 10 -5 7 -11 -10 8 -39 22 -34 8 4 11 1 8 -5
-4 -6 -13 -8 -20 -5 -7 2 -18 -1 -24 -7 -9 -9 -14 -9 -20 2 -6 9 -11 10 -15 2
-4 -6 -2 -11 5 -11 8 0 8 -5 -2 -16 -11 -14 -10 -19 9 -34 17 -14 19 -19 8
-23 -8 -3 -20 2 -28 11 -11 13 -11 14 1 7 10 -5 12 -4 7 4 -4 6 -12 9 -17 6
-5 -3 -6 2 -3 12 4 14 3 15 -4 4 -7 -9 -12 -10 -16 -2 -4 6 -3 11 1 11 5 0 9
9 10 20 1 17 -1 18 -17 8 -12 -8 -15 -15 -9 -19 14 -9 13 -20 -3 -31 -10 -7
-8 -8 5 -4 12 4 16 2 11 -6 -5 -7 -2 -8 7 -3 8 5 11 5 7 0 -4 -4 -2 -15 5 -23
10 -13 9 -14 -2 -7 -8 5 -12 4 -8 -1 3 -6 2 -16 -4 -24 -7 -13 -9 -13 -9 -1 0
11 -4 9 -15 -5 -11 -14 -14 -15 -9 -3 3 10 0 20 -5 24 -6 3 -8 11 -5 17 4 7 0
7 -12 1 -39 -19 -52 -8 -56 45 -1 7 -7 11 -14 8 -9 -3 -11 1 -7 12 5 14 3 15
-7 5 -11 -10 -11 -16 1 -30 8 -10 21 -30 28 -45 8 -15 19 -24 24 -21 6 4 8 0
4 -11 -4 -10 -1 -19 8 -22 8 -4 13 -10 10 -14 -3 -4 4 -19 15 -32 25 -32 66
-31 62 2 -2 19 0 21 13 10 12 -10 18 -10 31 1 15 12 16 11 10 -8 -4 -12 -2
-24 3 -28 7 -4 8 1 4 11 -5 13 -3 15 7 9 8 -5 11 -4 7 2 -4 6 0 16 8 23 7 6
24 28 35 48 15 24 16 31 6 23 -10 -9 -16 -9 -16 -3 0 6 12 18 28 26 15 8 21
15 14 16 -7 0 -10 5 -7 10 4 6 11 7 17 4 6 -4 8 -2 5 3 -4 6 1 14 11 18 16 6
16 7 0 19 -10 7 -15 16 -11 19 3 4 12 2 18 -3 9 -8 15 -5 19 7 4 10 6 19 4 19
-2 1 5 10 14 20 9 11 18 26 20 34 2 8 9 21 16 28 7 8 10 17 7 22 -3 4 2 11 11
14 8 3 13 10 10 15 -3 5 1 12 10 15 8 3 13 10 10 15 -4 5 -2 11 3 13 5 1 11 9
13 17 2 8 12 25 23 39 11 13 20 27 20 30 0 4 10 21 22 38 12 17 20 34 16 38
-3 3 -2 6 4 6 21 0 23 33 4 64 -11 17 -19 38 -19 46 2 37 -2 49 -17 44 -8 -4
-15 -2 -15 3 0 19 32 9 40 -13 13 -32 28 -38 55 -20 14 9 25 12 25 7 0 -5 -10
-13 -21 -16 -17 -6 -19 -9 -8 -17 10 -7 8 -7 -8 -3 -18 5 -22 3 -17 -9 3 -9
11 -13 17 -9 6 3 7 1 3 -6 -4 -6 -13 -8 -19 -5 -7 4 -6 1 2 -7 9 -9 15 -10 17
-3 3 6 20 34 39 64 19 29 32 57 29 62 -3 4 -1 8 4 8 5 0 15 14 22 30 7 17 16
30 21 30 5 0 8 3 7 8 -1 4 5 18 14 32 17 25 15 75 -2 65 -17 -10 -23 18 -7 30
9 7 13 16 9 20 -4 5 -1 5 7 0 12 -7 11 -10 -2 -20 -18 -13 -24 -30 -7 -20 6 3
14 -4 19 -17 8 -22 8 -22 25 10 9 17 16 35 15 38 0 4 3 10 9 13 12 8 66 101
58 101 -3 0 3 9 14 20 25 25 27 48 3 29 -11 -10 -14 -10 -9 -1 4 6 2 12 -3 12
-6 0 -11 -6 -11 -12 0 -9 -3 -10 -8 -2 -5 8 -217 11 -711 13 -635 2 -703 1
-698 -13z m1397 -12 c0 -8 -19 -13 -24 -6 -3 5 1 9 9 9 8 0 15 -2 15 -3z m30
-8 c0 -2 -7 -7 -16 -10 -8 -3 -12 -2 -9 4 6 10 25 14 25 6z m-56 -22 c3 -8 2
-12 -4 -9 -6 3 -10 10 -10 16 0 14 7 11 14 -7z m-173 -17 c-6 -8 -7 -18 -3
-22 4 -5 1 -5 -6 -1 -10 6 -10 11 -1 22 6 8 14 14 16 14 3 0 0 -6 -6 -13z
m136 -7 c-2 -11 -10 -26 -17 -33 -12 -10 -12 -9 -3 3 6 8 9 23 8 33 -2 9 1 17
6 17 5 0 7 -9 6 -20z m-37 -14 c-7 -7 -13 -7 -20 0 -6 6 -3 10 10 10 13 0 16
-4 10 -10z m96 2 c5 -7 3 -8 -6 -3 -10 6 -12 4 -6 -11 5 -14 4 -16 -5 -7 -6 6
-8 16 -5 22 9 14 13 14 22 -1z m-96 -22 c0 -2 -8 -10 -17 -17 -16 -13 -17 -12
-4 4 13 16 21 21 21 13z m75 -16 c3 -5 1 -10 -4 -10 -6 0 -11 5 -11 10 0 6 2
10 4 10 3 0 8 -4 11 -10z m-51 -16 c3 -8 2 -12 -4 -9 -6 3 -10 10 -10 16 0 14
7 11 14 -7z m-144 2 c0 -2 -7 -7 -16 -10 -8 -3 -12 -2 -9 4 6 10 25 14 25 6z
m95 -14 c-3 -3 -11 0 -18 7 -9 10 -8 11 6 5 10 -3 15 -9 12 -12z m78 -2 c3
-11 1 -18 -4 -14 -5 3 -9 12 -9 20 0 20 7 17 13 -6z m-218 -10 c3 -5 1 -10 -4
-10 -6 0 -11 5 -11 10 0 6 2 10 4 10 3 0 8 -4 11 -10z m61 -20 c0 -12 -4 -16
-9 -11 -5 5 -6 14 -3 20 10 15 12 14 12 -9z m141 -5 c0 -8 -4 -12 -9 -9 -5 3
-6 10 -3 15 9 13 12 11 12 -6z m-82 -4 c3 -5 0 -13 -6 -17 -8 -5 -9 -3 -4 6 6
10 4 12 -9 7 -10 -4 -15 -3 -11 3 8 13 22 13 30 1z m-135 -11 c0 -5 -5 -10
-11 -10 -5 0 -7 5 -4 10 3 6 8 10 11 10 2 0 4 -4 4 -10z m105 -46 c-8 -6 -11
-15 -7 -19 4 -5 1 -5 -7 0 -12 7 -12 10 1 19 8 6 13 18 11 26 -4 13 -3 13 6 0
8 -11 7 -18 -4 -26z m55 26 c0 -5 -4 -10 -10 -10 -5 0 -10 5 -10 10 0 6 5 10
10 10 6 0 10 -4 10 -10z m-244 -25 c-1 -8 -5 -17 -8 -21 -5 -4 -4 16 1 34 3 9
9 -1 7 -13z m104 0 c-6 -8 -8 -20 -4 -27 5 -10 4 -10 -6 -1 -11 10 -11 15 0
28 7 8 15 15 17 15 3 0 0 -7 -7 -15z m157 -5 c-1 -12 -5 -16 -10 -11 -5 5 -6
14 -3 20 11 16 15 13 13 -9z m-37 0 c0 -5 -5 -10 -11 -10 -5 0 -7 5 -4 10 3 6
8 10 11 10 2 0 4 -4 4 -10z m-75 -9 c-9 -8 -36 -10 -30 -2 2 4 11 8 20 8 8 0
13 -3 10 -6z m-188 -33 c2 -17 0 -19 -7 -8 -5 8 -6 18 -4 22 8 12 10 10 11
-14z m212 -1 c0 -9 -2 -8 -6 1 -2 6 -10 9 -15 6 -7 -4 -8 -2 -4 5 9 13 26 5
25 -12z m33 16 c-10 -4 -10 -10 3 -29 9 -14 11 -24 5 -24 -6 0 -9 -4 -5 -9 3
-6 -4 -15 -15 -21 -11 -6 -20 -15 -20 -21 0 -6 5 -7 11 -3 8 4 8 0 0 -15 -15
-27 -18 -27 -18 4 0 14 7 31 16 38 20 15 24 33 11 56 -10 19 -4 32 14 30 6 0
5 -3 -2 -6z m38 -3 c0 -5 -2 -10 -4 -10 -3 0 -8 5 -11 10 -3 6 -1 10 4 10 6 0
11 -4 11 -10z m-340 -4 c0 -2 -8 -10 -17 -17 -16 -13 -17 -12 -4 4 13 16 21
21 21 13z m163 -7 c10 8 14 7 14 -2 0 -19 -34 -18 -49 1 -12 15 -11 16 5 3 12
-10 20 -11 30 -2z m52 -17 c-3 -3 -11 0 -18 7 -9 10 -8 11 6 5 10 -3 15 -9 12
-12z m-96 -5 c8 -10 7 -14 -2 -14 -8 0 -14 6 -14 14 0 7 1 13 2 13 2 0 8 -6
14 -13z m161 -7 c0 -5 -4 -10 -10 -10 -5 0 -10 5 -10 10 0 6 5 10 10 10 6 0
10 -4 10 -10z m-113 -6 c-3 -3 -12 -4 -19 -1 -8 3 -5 6 6 6 11 1 17 -2 13 -5z
m73 -4 c8 -5 11 -10 5 -10 -5 0 -17 5 -25 10 -8 5 -10 10 -5 10 6 0 17 -5 25
-10z m-32 -8 c8 -6 2 -9 -18 -9 -20 0 -26 3 -18 9 7 4 15 8 18 8 3 0 11 -4 18
-8z m48 -21 c-9 -10 -14 -25 -10 -34 8 -21 -33 -44 -50 -27 -6 6 -6 11 -1 10
23 -5 45 1 45 11 0 5 -4 7 -10 4 -6 -4 -7 1 -4 12 5 16 4 16 -10 -1 -9 -11
-16 -14 -16 -7 0 7 -4 10 -8 7 -5 -3 -9 1 -9 9 0 8 4 15 9 15 4 0 8 -5 8 -11
0 -8 5 -8 15 1 8 7 15 9 15 6 0 -4 7 0 16 8 22 22 31 20 10 -3z m-134 -10 c-3
-9 -1 -12 6 -7 7 4 12 5 12 2 0 -14 -19 -13 -33 2 -15 16 -15 18 2 18 12 0 17
-5 13 -15z m-36 -13 c3 -4 -1 -5 -10 -4 -8 1 -18 5 -22 8 -3 4 1 5 10 4 8 -1
18 -5 22 -8z m-132 -16 c2 -4 -5 -9 -17 -9 -17 -2 -19 0 -7 7 18 12 18 12 24
2z m172 -29 c-4 -4 -12 -1 -19 7 -9 10 -9 11 1 6 7 -4 12 -2 13 6 0 11 2 11 6
0 3 -7 2 -16 -1 -19z m-35 -16 c-8 -8 -14 -7 -23 2 -11 10 -9 11 6 5 15 -6 17
-4 11 6 -6 9 -4 11 4 5 9 -5 10 -10 2 -18z m-49 6 c-6 -2 -10 -9 -7 -14 4 -5
2 -17 -4 -26 -8 -15 -9 -12 -6 12 2 17 4 31 4 33 1 1 7 2 14 1 9 0 9 -2 -1 -6z
m118 -3 c0 -5 -4 -10 -10 -10 -5 0 -10 5 -10 10 0 6 5 10 10 10 6 0 10 -4 10
-10z m-247 -15 c-3 -9 -8 -14 -10 -11 -3 3 -2 9 2 15 9 16 15 13 8 -4z m225
-12 c2 -7 -1 -13 -8 -13 -6 0 -8 5 -4 12 5 8 2 9 -9 5 -10 -3 -17 -2 -17 4 0
14 32 7 38 -8z m-43 -30 c1 -13 -3 -23 -8 -23 -5 0 -7 9 -4 21 4 15 2 19 -9
15 -8 -3 -14 -1 -14 5 0 21 33 3 35 -18z m-131 1 c3 -8 2 -12 -4 -9 -6 3 -10
10 -10 16 0 14 7 11 14 -7z m92 -23 c-10 -15 -49 -7 -52 12 -1 9 2 15 7 11 5
-3 7 -9 4 -14 -3 -5 4 -8 15 -7 15 1 19 6 15 22 -5 18 -5 18 5 2 6 -9 9 -21 6
-26z m-122 18 c3 -3 -5 -5 -19 -5 -13 0 -22 3 -19 7 4 8 30 6 38 -2z m190 -4
c-4 -8 -8 -15 -10 -15 -2 0 -4 7 -4 15 0 8 4 15 10 15 5 0 7 -7 4 -15z m-197
-24 c14 12 14 10 -1 -13 -10 -16 -21 -28 -24 -28 -3 0 -2 3 1 7 4 3 -1 16 -10
27 -17 20 -17 20 0 7 14 -11 20 -11 34 0z m46 -11 c4 -14 -1 -23 -16 -31 -19
-9 -20 -8 -7 3 9 7 14 21 12 31 -5 24 4 22 11 -3z m-293 0 c0 -5 -2 -10 -4
-10 -3 0 -8 5 -11 10 -3 6 -1 10 4 10 6 0 11 -4 11 -10z m165 -20 c3 -6 -1 -7
-9 -4 -18 7 -21 14 -7 14 6 0 13 -4 16 -10z m42 -6 c-3 -3 -12 -4 -19 -1 -8 3
-5 6 6 6 11 1 17 -2 13 -5z m30 -30 c-3 -3 -12 -4 -19 -1 -8 3 -5 6 6 6 11 1
17 -2 13 -5z m-206 -31 c13 -16 12 -17 -3 -4 -17 13 -22 21 -14 21 2 0 10 -8
17 -17z m174 7 c-3 -5 -12 -10 -18 -10 -7 0 -6 4 3 10 19 12 23 12 15 0z
m-210 -9 c3 -5 2 -12 -3 -15 -5 -3 -9 1 -9 9 0 17 3 19 12 6z m239 -13 c-3 -4
0 -8 7 -8 7 0 9 -3 6 -6 -4 -4 -13 -1 -21 5 -12 10 -15 9 -13 -8 1 -21 27 -39
27 -19 0 6 3 9 6 5 3 -3 3 -10 -1 -16 -11 -19 -43 6 -40 31 3 27 1 25 20 25 8
0 12 -4 9 -9z m220 3 c3 -5 -2 -15 -12 -22 -15 -12 -16 -12 -5 2 7 9 10 19 6
22 -3 4 -4 7 0 7 3 0 8 -4 11 -9z m-270 -16 c3 -8 1 -15 -4 -15 -6 0 -10 7
-10 15 0 8 2 15 4 15 2 0 6 -7 10 -15z m-133 -18 c-10 -9 -11 -8 -5 6 3 10 9
15 12 12 3 -3 0 -11 -7 -18z m106 1 c2 -17 0 -19 -7 -8 -5 8 -6 18 -4 22 8 12
10 10 11 -14z m-2 -37 c-6 -5 -25 10 -25 20 0 5 6 4 14 -3 8 -7 12 -15 11 -17z
m-160 9 c3 -5 1 -10 -4 -10 -6 0 -11 5 -11 10 0 6 2 10 4 10 3 0 8 -4 11 -10z
m71 3 c-2 -3 -6 -3 -9 -1 -3 2 -15 -6 -28 -17 l-24 -20 18 21 c9 11 24 21 32
21 8 0 13 -2 11 -4z m54 3 c0 -3 -4 -8 -10 -11 -5 -3 -10 -1 -10 4 0 6 5 11
10 11 6 0 10 -2 10 -4z m-40 -36 c-6 -11 -13 -20 -16 -20 -2 0 0 9 6 20 6 11
13 20 16 20 2 0 0 -9 -6 -20z m-27 -10 c-3 -12 -8 -19 -11 -16 -5 6 5 36 12
36 2 0 2 -9 -1 -20z m334 -11 c-9 -6 -14 -15 -11 -21 4 -7 2 -8 -4 -4 -10 6
-17 -6 -9 -18 1 -2 -6 -13 -16 -23 -9 -11 -14 -23 -10 -26 3 -4 0 -7 -7 -7 -7
0 -10 -3 -7 -7 4 -3 -1 -15 -10 -26 -10 -10 -17 -22 -16 -26 2 -3 -4 -6 -11
-6 -22 0 -77 -45 -70 -56 4 -6 11 -6 20 2 7 6 11 15 8 20 -7 11 7 11 25 0 11
-7 9 -10 -8 -16 -11 -3 -21 -11 -21 -16 0 -18 -4 -24 -26 -42 -12 -9 -29 -14
-37 -11 -8 3 -18 1 -22 -5 -3 -6 -1 -11 5 -11 6 0 8 -4 5 -10 -10 -16 -21 -12
-22 9 -1 11 5 22 13 25 7 3 11 12 8 21 -3 8 -10 13 -14 10 -5 -3 -12 0 -16 6
-8 14 34 49 52 42 11 -4 27 11 30 30 1 4 2 10 3 13 0 4 8 1 16 -6 16 -13 37
-5 33 13 -1 7 3 21 9 32 6 11 11 23 12 28 1 4 3 6 4 5 8 -6 36 25 31 33 -3 5
-2 8 3 7 4 -2 9 1 10 5 3 12 46 46 58 46 6 0 2 -4 -8 -10z m-432 -18 c3 -5 2
-12 -3 -15 -5 -3 -9 1 -9 9 0 17 3 19 12 6z m130 -9 c-3 -3 -11 0 -18 7 -9 10
-8 11 6 5 10 -3 15 -9 12 -12z m-60 -2 c-3 -5 -12 -10 -18 -10 -7 0 -6 4 3 10
19 12 23 12 15 0z m30 -10 c-3 -4 2 -10 10 -14 8 -3 15 -1 15 4 0 6 5 10 11
10 8 0 8 -5 -1 -15 -14 -17 -42 -6 -46 19 -1 9 2 14 7 10 5 -3 7 -9 4 -14z
m-61 -21 c-3 -6 0 -15 7 -20 8 -4 15 -13 15 -19 1 -5 2 -14 3 -20 0 -5 6 -10
12 -10 6 0 8 9 4 23 -5 20 -5 20 6 4 8 -14 8 -22 0 -30 -12 -12 -28 -2 -33 23
-2 8 -9 20 -17 26 -12 10 -9 34 5 34 3 0 2 -5 -2 -11z m50 -4 c18 -13 18 -14
-2 -12 -11 0 -19 4 -16 8 2 4 -2 10 -8 12 -7 3 -8 6 -3 6 6 0 18 -6 29 -14z
m-67 -30 c5 -4 2 -5 -4 -1 -14 8 -16 5 -7 -18 3 -8 13 -12 22 -9 15 4 15 3 2
-6 -11 -8 -18 -7 -26 4 -6 8 -15 11 -20 7 -5 -4 -6 -3 -2 2 4 5 3 14 -2 21 -7
8 -4 11 10 10 11 -1 23 -5 27 -10z m-52 -53 c-3 -3 -11 0 -18 7 -9 10 -8 11 6
5 10 -3 15 -9 12 -12z m28 -7 c-7 -21 -12 -19 -10 4 0 11 5 18 9 15 4 -3 5
-11 1 -19z m37 -5 c-14 -10 -27 -17 -29 -14 -6 5 31 33 44 33 6 1 -1 -8 -15
-19z m134 -131 c-3 -5 0 -9 6 -9 6 0 9 -4 5 -9 -8 -13 10 -22 30 -15 9 4 14
12 11 19 -3 8 2 11 15 8 23 -6 24 -12 3 -41 -9 -13 -22 -21 -29 -18 -7 2 -17
0 -23 -6 -8 -8 -15 -8 -26 1 -12 10 -18 8 -32 -14 -15 -23 -19 -24 -31 -12
-13 12 -20 31 -22 60 -1 5 -5 6 -10 3 -5 -4 -7 3 -4 14 7 25 28 21 29 -6 2
-35 5 -39 15 -21 6 9 14 15 19 12 4 -3 15 6 23 19 12 18 13 26 4 37 -10 11 -9
11 5 0 10 -7 15 -17 12 -22z"/>
<path d="M1695 1040 c-10 -11 -23 -17 -29 -13 -6 3 -8 2 -3 -2 4 -5 1 -18 -7
-30 -21 -32 -5 -48 18 -17 11 14 14 22 8 18 -21 -13 -13 7 15 36 15 15 24 28
21 28 -3 0 -13 -9 -23 -20z"/>
<path d="M1593 943 c7 -11 -25 -45 -39 -42 -14 3 -44 -12 -44 -23 0 -5 4 -7 9
-3 5 3 12 1 16 -5 4 -6 10 -8 15 -5 5 3 11 1 15 -5 3 -5 1 -10 -5 -10 -6 0 -8
-5 -5 -10 4 -6 12 -4 22 5 12 13 13 18 3 31 -11 12 -9 19 9 38 17 18 19 26 10
31 -7 5 -10 4 -6 -2z m-27 -65 c15 -19 16 -20 2 -9 -10 7 -18 10 -18 7 0 -4
-5 -4 -10 -1 -6 4 -8 11 -5 16 8 12 9 12 31 -13z"/>
<path d="M1472 789 c-7 -11 -17 -17 -22 -14 -5 3 -7 -1 -4 -9 4 -11 0 -14 -16
-11 -19 4 -20 2 -9 -11 12 -14 15 -13 34 10 19 24 43 37 30 17 -3 -5 0 -13 6
-16 17 -11 20 0 6 28 -13 24 -14 25 -25 6z"/>
<path d="M1546 785 c-11 -8 -15 -15 -9 -15 6 0 16 7 23 15 16 19 11 19 -14 0z"/>
<path d="M701 1796 c-11 -25 -52 -124 -90 -219 -38 -95 -128 -318 -200 -496
-72 -179 -130 -326 -128 -327 2 -2 50 -10 114 -19 81 -10 343 -46 373 -51 31
-5 92 -12 155 -18 11 -1 26 -5 33 -9 7 -5 12 -4 12 2 0 7 7 7 21 -1 18 -11 23
-11 26 0 4 10 9 8 18 -5 13 -17 14 -17 29 2 8 11 16 16 16 10 1 -5 6 -1 11 10
l9 20 -3 -20 c-2 -11 -9 -19 -15 -18 -7 2 -12 -2 -12 -8 0 -6 9 -9 20 -6 11 3
20 1 20 -3 0 -5 9 -8 20 -7 11 1 20 5 20 10 0 5 -7 6 -16 3 -10 -4 -13 -2 -8
6 4 7 3 8 -4 4 -7 -4 -12 -2 -12 4 0 6 8 9 18 6 9 -3 23 -2 30 3 11 6 9 14
-10 33 -13 14 -29 27 -37 30 -8 2 -15 12 -17 21 -1 9 2 15 7 11 5 -3 7 -9 4
-14 -3 -4 6 -11 20 -14 14 -4 25 -11 25 -17 0 -6 4 -7 10 -4 6 4 5 13 -2 25
-7 10 -16 17 -20 14 -4 -3 -5 2 -2 11 5 11 2 14 -10 9 -9 -3 -16 -2 -16 3 0
21 32 8 46 -19 8 -15 18 -28 23 -28 14 0 35 30 26 38 -4 4 -10 1 -12 -5 -3 -7
-9 -13 -15 -13 -6 0 -3 9 7 20 10 11 13 20 7 20 -7 0 -12 7 -12 16 0 8 -4 13
-9 9 -5 -3 -12 -1 -15 4 -4 5 1 8 10 7 9 -1 26 -19 39 -39 12 -20 25 -34 30
-29 4 4 5 1 1 -5 -4 -7 -3 -13 2 -13 14 0 59 39 46 40 -5 0 -15 -5 -22 -12 -9
-9 -12 -9 -12 0 0 7 -5 11 -12 9 -6 -1 -14 6 -16 16 -2 9 1 17 7 17 6 0 8 -6
5 -13 -3 -8 4 -13 17 -14 16 -2 18 1 10 11 -14 16 10 29 34 20 18 -7 20 -24 3
-24 -6 0 -9 -3 -5 -6 3 -3 13 -2 22 3 14 8 12 13 -12 38 -15 16 -22 25 -16 21
9 -5 11 -2 7 8 -3 9 -10 13 -16 10 -5 -3 -8 0 -6 7 4 18 -83 169 -94 163 -4
-3 -5 1 -2 9 3 8 -2 22 -11 31 -9 9 -14 16 -11 16 5 0 -29 61 -258 460 -87
151 -162 279 -167 284 -5 5 -17 -11 -28 -38z m449 -816 c0 -5 -5 -10 -11 -10
-5 0 -7 5 -4 10 3 6 8 10 11 10 2 0 4 -4 4 -10z m-85 -29 c3 -5 2 -12 -3 -15
-5 -3 -9 1 -9 9 0 17 3 19 12 6z m110 -11 c3 -6 -1 -7 -9 -4 -18 7 -21 14 -7
14 6 0 13 -4 16 -10z m40 0 c-3 -5 -12 -10 -18 -10 -7 0 -6 4 3 10 19 12 23
12 15 0z m-55 -16 c0 -8 -19 -13 -24 -6 -3 5 1 9 9 9 8 0 15 -2 15 -3z m66 -9
c-1 -8 -6 -18 -11 -22 -4 -5 -5 -2 0 6 6 11 4 13 -11 8 -18 -7 -18 -7 0 8 24
18 25 18 22 0z m-53 -20 c-3 -9 -8 -14 -10 -11 -3 3 -2 9 2 15 9 16 15 13 8
-4z m68 -8 c-10 -9 -11 -8 -5 6 3 10 9 15 12 12 3 -3 0 -11 -7 -18z m-93 -12
c-3 -3 -9 2 -12 12 -6 14 -5 15 5 6 7 -7 10 -15 7 -18z m-74 7 c3 -5 -1 -9 -9
-9 -8 0 -12 4 -9 9 3 4 7 8 9 8 2 0 6 -4 9 -8z m52 -11 c-4 -5 0 -11 6 -14 7
-3 3 -4 -9 -4 -17 1 -19 4 -11 14 12 15 22 18 14 4z m55 -24 c-8 -8 -14 -7
-23 2 -11 10 -9 11 6 5 15 -6 17 -4 11 6 -6 9 -4 11 4 5 9 -5 10 -10 2 -18z
m89 -10 c0 -4 -7 -10 -15 -13 -17 -7 -45 12 -45 30 0 6 5 3 11 -6 5 -10 18
-18 27 -18 16 1 16 2 0 14 -25 18 -23 29 2 14 11 -7 20 -16 20 -21z m-304 -11
c0 -14 -5 -21 -9 -17 -4 4 -5 15 -1 24 9 24 12 21 10 -7z m169 -4 c-3 -3 -11
0 -18 7 -9 10 -8 11 6 5 10 -3 15 -9 12 -12z m73 -7 c-3 -3 -9 2 -12 12 -6 14
-5 15 5 6 7 -7 10 -15 7 -18z m-158 -17 c0 -6 -3 -8 -7 -5 -3 4 -13 1 -22 -6
-14 -11 -14 -10 -2 6 15 20 31 22 31 5z m119 -22 c-3 -3 -11 5 -18 17 -13 21
-12 21 5 5 10 -10 16 -20 13 -22z m-119 -1 c0 -2 -10 -9 -22 -15 -22 -11 -22
-10 -4 4 21 17 26 19 26 11z m23 -36 c-8 -8 -13 -7 -18 2 -6 8 -4 10 5 4 10
-6 12 -4 6 11 -6 15 -5 17 5 7 9 -10 10 -16 2 -24z m-225 -4 c-3 -3 -9 2 -12
12 -6 14 -5 15 5 6 7 -7 10 -15 7 -18z m153 -28 c-10 -9 -11 -8 -5 6 3 10 9
15 12 12 3 -3 0 -11 -7 -18z m-174 -2 c0 -8 -4 -12 -9 -9 -5 3 -6 10 -3 15 9
13 12 11 12 -6z m278 5 c-3 -5 -15 -10 -26 -10 -10 0 -18 -6 -16 -12 1 -7 -4
-13 -12 -13 -8 0 -15 6 -17 13 -1 7 0 8 3 2 7 -14 24 -13 21 2 -2 6 8 15 22
19 14 4 26 7 28 8 2 1 0 -3 -3 -9z m-125 -4 c0 -2 -9 -6 -20 -9 -11 -3 -18 -1
-14 4 5 9 34 13 34 5z m159 -15 c9 -6 10 -11 2 -15 -6 -4 -11 -2 -11 4 0 6 -4
8 -10 5 -5 -3 -10 -1 -10 4 0 13 10 14 29 2z m-134 -10 c3 -5 2 -12 -3 -15 -5
-3 -9 1 -9 9 0 17 3 19 12 6z"/>
<path d="M2230 1821 c0 -5 3 -11 8 -14 4 -2 1 -2 -5 -1 -7 2 -17 -5 -23 -16
-14 -26 25 -56 49 -37 14 10 14 10 3 -4 -10 -14 -10 -18 4 -23 9 -4 19 -4 22
-1 3 3 0 5 -7 5 -7 0 -10 4 -7 9 4 5 3 16 0 25 -5 13 -10 14 -20 5 -15 -12
-34 -4 -33 14 0 9 2 9 6 0 2 -7 8 -13 13 -13 12 0 20 28 14 45 -7 16 -24 21
-24 6z"/>
<path d="M2181 1742 c-8 -14 -6 -19 5 -19 9 0 13 6 10 14 -3 8 -1 11 4 8 6 -3
10 -13 10 -21 0 -11 6 -14 23 -9 15 4 18 3 9 -3 -11 -7 -10 -10 3 -16 9 -3 14
-10 10 -15 -3 -5 0 -13 6 -17 8 -5 10 1 7 19 -3 17 -1 24 7 20 15 -5 14 -35 0
-45 -11 -8 -16 -50 -5 -43 4 2 7 -2 7 -10 0 -8 -4 -12 -8 -9 -4 2 -10 0 -14
-6 -3 -5 -12 -10 -18 -10 -8 0 -8 3 2 9 9 6 10 11 2 15 -6 4 -11 1 -11 -6 0
-8 -5 -6 -11 5 -5 9 -15 17 -22 17 -7 0 -6 -4 3 -10 8 -5 11 -10 6 -10 -6 0
-2 -6 8 -13 17 -13 18 -14 2 -20 -11 -5 -15 -3 -10 5 5 7 3 8 -5 4 -7 -5 -10
-14 -7 -21 3 -8 -2 -19 -9 -25 -8 -7 -12 -17 -8 -24 3 -6 -3 -2 -15 8 -29 25
-41 13 -16 -16 12 -15 14 -19 4 -13 -9 6 -8 3 2 -6 14 -14 15 -18 4 -22 -7 -3
-20 0 -27 6 -12 10 -12 9 -1 -3 6 -7 12 -18 12 -24 0 -5 -7 -1 -16 10 -8 10
-12 13 -8 5 5 -10 3 -12 -6 -6 -9 6 -11 4 -5 -5 5 -8 4 -11 -2 -7 -6 4 -22 -2
-34 -13 -19 -16 -21 -21 -10 -29 9 -6 10 -11 2 -15 -15 -10 -26 21 -13 37 7 8
8 18 1 27 -9 13 -10 13 -7 0 1 -8 -3 -25 -10 -37 -7 -13 -9 -23 -4 -23 6 0 17
-11 25 -24 14 -21 15 -25 1 -30 -8 -3 -13 -2 -10 2 2 4 -4 19 -15 32 -11 15
-17 18 -13 8 4 -12 -2 -21 -20 -29 -14 -7 -23 -15 -21 -20 3 -4 2 -10 -3 -13
-4 -2 -8 6 -8 19 0 13 4 21 10 18 5 -3 6 -1 3 5 -5 6 0 8 13 5 12 -3 20 0 20
7 0 7 -7 10 -17 6 -12 -4 -9 1 6 12 15 13 21 24 16 32 -5 8 -4 11 1 7 6 -3 11
3 11 14 1 10 -3 19 -9 19 -6 0 -9 -3 -5 -6 3 -3 -3 -15 -13 -27 -11 -11 -17
-24 -14 -28 2 -4 -2 -11 -9 -16 -17 -10 -57 -89 -50 -97 4 -3 -1 -6 -10 -6
-14 0 -16 -6 -12 -32 5 -29 4 -30 -12 -17 -10 7 -15 10 -11 5 4 -4 -2 -17 -12
-29 -11 -11 -17 -23 -15 -27 3 -4 -4 -18 -15 -31 -12 -12 -23 -33 -26 -46 -4
-12 -11 -20 -17 -16 -6 3 -7 1 -3 -6 4 -6 11 -9 15 -7 4 3 8 -8 8 -23 0 -20
-5 -27 -13 -24 -7 2 -10 11 -8 18 3 7 1 16 -4 19 -5 3 -9 -2 -8 -12 0 -9 -5
-16 -12 -14 -8 1 -11 -2 -7 -8 3 -6 11 -8 16 -5 5 4 9 -1 9 -10 0 -12 -6 -15
-19 -10 -11 3 -22 2 -24 -2 -9 -14 79 -9 95 5 22 18 18 77 -5 76 -9 -1 -17 3
-17 10 0 6 11 12 23 12 25 2 27 -4 28 -68 0 -21 4 -38 9 -38 5 0 7 7 3 16 -5
14 -3 15 14 6 14 -8 23 -8 31 0 8 8 11 5 9 -11 -1 -15 -7 -21 -22 -19 -15 2
-20 -3 -21 -20 -2 -27 13 -39 29 -23 9 9 8 11 -3 6 -11 -4 -16 1 -17 13 -1 13
5 18 19 18 14 -1 22 6 24 22 3 17 -4 28 -30 43 -39 23 -51 45 -30 53 24 9 27
7 15 -8 -9 -10 -8 -15 3 -19 9 -4 13 -1 10 6 -2 7 4 13 16 14 11 1 20 -2 20
-8 0 -5 -4 -9 -10 -9 -5 0 -10 -5 -10 -10 0 -6 8 -5 20 2 19 12 19 13 0 33
-22 23 -18 35 12 35 10 0 18 4 18 10 0 5 -7 7 -15 4 -11 -5 -13 -2 -9 10 3 9
10 13 15 10 5 -3 6 3 2 13 -6 15 -4 16 9 5 10 -8 14 -24 12 -45 -2 -20 -1 -27
5 -19 7 11 9 11 14 -1 8 -21 -19 -29 -33 -11 -7 8 -17 14 -23 14 -5 0 0 -9 13
-20 15 -13 28 -17 38 -11 20 11 24 38 6 45 -8 3 -14 10 -14 16 0 7 8 6 23 -2
12 -7 25 -11 30 -10 12 4 8 -16 -5 -21 -10 -4 -10 -6 -1 -6 23 -2 25 21 3 44
-20 21 -21 27 -9 41 11 14 11 17 -4 25 -9 6 -17 15 -17 21 0 7 5 6 15 -2 11
-9 15 -9 15 -1 0 7 4 10 10 6 5 -3 6 -13 3 -23 -6 -16 -6 -16 11 1 9 9 23 17
29 17 7 0 -3 -14 -21 -31 -19 -17 -32 -32 -30 -35 3 -2 19 9 36 25 16 16 34
26 38 23 5 -4 3 0 -4 10 -7 9 -9 18 -5 20 4 3 2 3 -6 1 -7 -2 -20 2 -27 8 -18
15 -19 35 -1 22 16 -13 59 -14 51 -2 -3 5 -11 9 -17 8 -22 -3 -37 1 -37 9 0
13 46 8 66 -8 18 -14 18 -14 5 3 -22 28 8 21 35 -9 13 -14 24 -20 24 -14 0 15
-41 49 -58 50 -7 0 -10 5 -7 11 4 5 12 8 18 6 6 -2 19 6 28 17 10 12 21 18 25
13 4 -4 -1 -13 -11 -20 -10 -8 -15 -20 -12 -28 4 -11 6 -10 6 2 1 9 8 20 17
23 10 4 13 13 9 27 -5 14 -3 19 3 15 6 -3 14 -1 18 5 4 8 3 9 -4 5 -7 -4 -12
-2 -12 3 0 12 23 15 33 4 4 -3 -1 -15 -10 -25 -16 -18 -16 -18 0 -12 9 3 17
10 17 16 0 5 6 6 13 2 7 -5 6 -1 -3 10 -8 10 -23 21 -34 25 -13 5 -16 10 -8
15 7 4 25 -5 42 -23 17 -16 30 -26 30 -22 0 4 -5 12 -12 19 -12 12 5 42 25 42
7 0 7 -4 -1 -12 -7 -7 -12 -16 -12 -22 0 -5 6 -1 14 9 8 11 12 24 10 30 -3 6
3 19 11 30 16 19 16 19 11 -10 -5 -23 -4 -26 4 -13 11 18 9 45 -3 66 -5 6 -5
17 -1 24 5 7 3 8 -6 3 -10 -6 -12 -4 -7 9 5 11 3 15 -5 10 -8 -5 -9 -2 -5 10
4 10 1 19 -9 23 -13 5 -13 7 -2 14 10 7 11 9 0 9 -7 0 -10 5 -6 12 4 6 3 8 -4
4 -6 -3 -13 -2 -17 4 -3 5 -1 10 4 10 6 0 11 7 11 15 0 15 -61 58 -76 55 -4
-1 -11 5 -16 14 -12 21 -25 20 -37 -2z m119 -107 c7 -8 9 -15 4 -15 -5 0 0 -7
10 -15 19 -14 11 -21 -17 -16 -5 1 -6 -3 -2 -8 3 -6 -3 -8 -14 -6 -14 3 -18
-1 -14 -11 4 -10 -1 -13 -17 -12 -13 2 -24 -3 -26 -10 -1 -7 0 -8 3 -2 2 5 9
10 15 10 6 0 6 -6 -2 -15 -7 -8 -16 -12 -21 -9 -5 3 -9 0 -9 -6 0 -6 -4 -9 -9
-6 -11 7 -8 -20 3 -31 4 -4 6 -2 4 6 -1 7 2 15 9 18 6 2 10 -4 9 -14 -3 -20
-36 -31 -36 -12 0 7 -3 10 -6 7 -3 -4 -1 -15 5 -27 7 -13 8 -22 1 -26 -5 -3
-10 -1 -10 5 0 6 -5 8 -11 4 -15 -9 10 -24 29 -17 12 5 12 3 1 -14 l-12 -21
-18 22 c-10 11 -18 15 -19 9 0 -7 5 -13 10 -13 6 0 10 -4 10 -10 0 -14 -23 -8
-37 10 -6 8 -15 12 -19 7 -4 -4 -2 -7 4 -7 7 0 12 -4 12 -10 0 -5 -3 -9 -7 -9
-23 4 -29 -4 -29 -35 0 -19 4 -32 8 -30 5 3 8 0 8 -6 0 -7 -7 -10 -15 -6 -9 3
-19 -3 -26 -15 -8 -16 -7 -25 7 -40 9 -11 12 -19 6 -19 -6 0 -18 13 -27 29 -8
17 -20 33 -27 37 -6 4 -4 -3 5 -17 19 -26 21 -39 9 -39 -14 0 -32 49 -25 67 6
15 5 16 -9 3 -9 -8 -15 -19 -15 -25 1 -5 -4 -9 -12 -7 -11 2 -12 0 -3 -11 12
-14 7 -27 -10 -27 -5 0 -7 4 -3 9 3 5 1 12 -4 15 -5 4 -13 1 -17 -5 -5 -8 -3
-9 7 -4 11 7 12 6 2 -7 -7 -8 -9 -18 -5 -22 4 -4 7 -13 7 -19 0 -7 7 -11 16
-10 8 2 31 -14 50 -34 32 -36 18 -30 -28 10 -22 19 -22 19 -42 -22 -12 -23
-27 -41 -34 -42 -9 0 -9 -2 1 -6 6 -2 12 -9 12 -15 0 -6 -9 -3 -20 7 -11 10
-20 13 -20 7 0 -7 -4 -12 -9 -12 -6 0 -10 8 -9 18 0 9 -2 27 -5 39 -6 23 13
45 40 49 9 2 21 8 27 15 8 9 8 10 -1 5 -6 -3 -15 -1 -19 5 -4 8 -3 9 4 5 7 -4
12 -2 12 3 0 6 -6 11 -12 11 -7 0 -5 5 5 11 9 6 14 15 11 21 -5 7 -2 8 6 3 10
-6 12 -4 7 8 -3 9 -1 19 5 23 6 4 8 3 4 -4 -15 -25 12 -19 38 9 28 29 50 31
39 3 -4 -11 0 -15 13 -12 26 4 35 20 22 35 -7 9 -7 17 1 27 8 10 9 16 1 21 -6
3 -8 11 -4 16 3 5 10 7 15 3 5 -3 6 -10 3 -16 -4 -7 -2 -8 4 -4 6 4 9 13 6 21
-4 9 1 13 19 11 14 -2 32 6 45 19 l22 23 -22 28 -22 29 22 -19 c20 -17 27 -15
23 7 -1 4 6 10 14 13 8 4 15 12 15 18 0 12 43 39 64 40 12 1 16 35 5 42 -12 7
-12 24 0 24 5 0 14 -7 21 -15z m37 -88 c11 -18 16 -37 12 -42 -59 -73 -65 -78
-87 -66 -13 7 -23 8 -27 1 -9 -14 -22 -12 -28 4 -4 10 -1 13 9 9 8 -3 14 -2
13 3 -1 5 0 12 1 17 1 4 3 15 4 25 1 16 56 79 56 65 0 -4 5 -2 12 5 16 16 13
17 35 -21z m-116 -145 c-11 -21 -34 -41 -65 -57 -11 -7 -20 -18 -18 -26 1 -8
-7 -3 -18 10 -22 26 -26 41 -9 41 5 0 8 4 5 8 -3 5 1 9 9 9 17 0 17 0 9 -21
-3 -9 -11 -13 -17 -9 -6 3 -7 1 -3 -5 4 -6 13 -9 21 -6 8 4 12 11 8 17 -4 7 0
8 12 3 14 -5 16 -4 7 7 -9 10 -8 14 3 14 8 0 15 -5 15 -11 1 -6 8 1 16 17 8
15 19 27 25 27 6 0 6 -6 0 -18z m-209 -154 c-3 -11 3 -24 13 -32 13 -9 15 -15
6 -20 -7 -5 -21 0 -31 9 -11 10 -24 14 -32 9 -7 -4 -10 -4 -6 1 4 4 2 15 -5
24 -10 14 -10 14 3 5 11 -8 19 -6 33 8 9 10 12 18 6 18 -5 0 -7 5 -3 11 10 16
23 -9 16 -33z m-156 -136 c-8 -9 -19 -13 -22 -9 -10 9 16 38 28 31 6 -4 4 -13
-6 -22z m-6 -52 c0 -5 -5 -10 -11 -10 -8 0 -7 -5 1 -16 11 -12 10 -18 -3 -32
-14 -13 -19 -14 -29 -3 -8 8 -8 11 -2 8 7 -4 17 -1 23 7 9 10 9 15 1 18 -6 2
-8 11 -5 21 8 18 25 23 25 7z m74 -41 c-5 -9 -44 11 -44 23 0 4 11 3 25 -4 13
-6 22 -15 19 -19z"/>
<path d="M2074 1369 c-3 -6 -2 -15 3 -20 5 -5 9 -1 9 11 0 23 -2 24 -12 9z"/>
<path d="M1914 1192 c-9 -11 -22 -19 -28 -18 -6 2 -8 1 -3 -1 4 -3 7 -9 7 -14
0 -6 -6 -7 -12 -3 -9 5 -9 2 1 -9 16 -21 22 -21 46 -3 17 12 17 16 5 31 -12
14 -12 16 1 13 16 -3 26 15 10 20 -5 2 -18 -6 -27 -16z m6 -42 c-8 -5 -19 -10
-25 -10 -5 0 -3 5 5 10 8 5 11 10 7 10 -5 0 -5 5 -1 11 4 8 9 8 18 -1 8 -8 7
-13 -4 -20z"/>
<path d="M2286 1543 c-21 -11 -25 -18 -17 -26 8 -8 14 -8 23 1 18 18 30 14 17
-5 -6 -10 -22 -19 -35 -19 -13 -1 -22 2 -19 6 3 5 1 11 -4 15 -6 3 -8 -5 -5
-20 3 -16 0 -25 -8 -25 -7 -1 -2 -7 11 -14 29 -16 63 -2 53 22 -3 10 -1 13 6
8 6 -3 14 -1 18 5 5 8 3 9 -6 4 -8 -5 -11 -3 -8 6 3 8 11 13 18 11 10 -2 10 1
-1 14 -8 9 -12 19 -11 21 9 12 -6 10 -32 -4z m9 -13 c-3 -5 -12 -10 -18 -10
-7 0 -6 4 3 10 19 12 23 12 15 0z m-5 -53 c0 -19 -10 -27 -26 -20 -11 4 -12 9
-3 19 15 18 29 18 29 1z"/>
<path d="M2164 1706 c-17 -13 -16 -14 4 -25 20 -10 34 1 15 12 -5 2 -1 2 7 -1
8 -2 20 -5 27 -5 7 0 12 -3 11 -6 -2 -21 4 -31 14 -25 7 4 8 3 4 -5 -4 -6 -11
-9 -16 -6 -4 3 -11 -1 -13 -7 -4 -10 -6 -10 -6 0 -1 9 -8 8 -26 -4 -25 -16
-25 -17 -8 -38 l18 -21 -22 19 c-20 17 -34 10 -16 -8 17 -17 10 -34 -13 -31
-14 1 -21 -2 -17 -8 4 -6 1 -7 -7 -2 -8 5 -11 4 -7 -2 4 -6 -1 -10 -10 -9 -9
0 -18 -6 -21 -14 -5 -13 -3 -13 11 -1 10 7 17 9 17 4 0 -5 -14 -17 -30 -27
-17 -9 -28 -21 -25 -26 3 -4 -5 -6 -17 -3 -14 4 -20 2 -15 -3 5 -5 13 -10 18
-10 5 -1 14 -2 20 -3 5 0 7 -6 3 -12 -10 -16 29 6 46 26 10 12 16 13 29 3 14
-12 15 -11 1 5 -29 37 -17 84 14 58 10 -8 16 -8 25 3 9 11 9 16 0 21 -8 6 -7
10 5 17 12 7 14 14 6 28 -13 24 5 37 25 20 8 -7 15 -9 15 -5 0 4 6 3 13 -4 11
-8 13 -4 11 22 -1 17 -3 34 -4 37 -1 3 -2 8 -2 11 1 3 -14 13 -33 22 -27 13
-36 14 -51 3z m16 -162 c0 -8 -19 -13 -24 -6 -3 5 1 9 9 9 8 0 15 -2 15 -3z
m-64 -48 c-3 -19 -26 -46 -40 -46 -6 0 -4 5 4 10 12 8 12 10 1 10 -8 0 -4 8
10 20 29 23 28 23 25 6z"/>
<path d="M2134 1659 c-11 -12 -19 -24 -18 -28 3 -18 -10 -40 -20 -34 -6 3 -8
2 -3 -2 4 -5 0 -17 -10 -27 -9 -10 -13 -18 -10 -18 4 0 -1 -9 -11 -20 -9 -12
-15 -23 -14 -27 2 -3 -2 -10 -10 -15 -10 -8 -10 -9 2 -5 8 2 14 10 12 17 -2 7
3 10 12 7 10 -4 13 -1 10 8 -3 7 5 21 20 30 14 10 23 22 19 31 -3 8 0 14 7 14
6 0 9 -4 5 -9 -7 -13 12 -24 26 -15 8 5 5 12 -9 23 -17 12 -19 19 -11 31 9 12
10 11 5 -4 -7 -19 -6 -19 13 -2 18 16 20 36 5 36 -3 0 -2 -4 1 -10 3 -6 -1 -7
-10 -3 -13 4 -14 8 -4 14 7 4 21 3 31 -2 14 -7 20 -6 25 6 5 13 7 14 14 3 6
-9 9 -9 9 -1 0 16 -17 26 -25 13 -4 -7 -12 -7 -24 0 -14 7 -23 4 -37 -11z"/>
<path d="M2376 1462 c-10 -16 1 -45 18 -48 16 -2 16 -1 3 14 -8 9 -12 23 -10
30 5 13 -3 17 -11 4z"/>
<path d="M2343 1428 c-17 -23 -43 -111 -28 -96 4 3 8 12 9 20 9 43 19 67 27
62 5 -3 7 -9 5 -13 -3 -4 5 -8 16 -8 21 -2 21 -2 -1 13 -12 9 -19 20 -16 25 9
13 -1 11 -12 -3z"/>
<path d="M1870 1403 c0 -5 5 -15 10 -23 7 -12 9 -10 7 8 -1 19 -17 33 -17 15z"/>
<path d="M2354 1372 c-8 -5 -5 -13 9 -27 20 -20 20 -20 9 1 -6 12 -8 24 -5 28
9 8 1 7 -13 -2z"/>
<path d="M2386 1363 c-6 -14 -5 -15 5 -6 7 7 10 15 7 18 -3 3 -9 -2 -12 -12z"/>
<path d="M1836 1354 c-4 -10 -2 -22 3 -27 6 -6 5 -15 -5 -24 -15 -15 -10 -38
7 -27 5 3 7 10 4 15 -4 5 0 11 7 14 18 7 20 41 3 55 -9 8 -14 6 -19 -6z"/>
<path d="M2280 1360 c0 -5 5 -10 10 -10 6 0 10 5 10 10 0 6 -4 10 -10 10 -5 0
-10 -4 -10 -10z"/>
<path d="M2255 1351 c-6 -11 13 -26 22 -17 4 3 1 6 -6 6 -7 0 -9 5 -6 10 3 6
4 10 1 10 -3 0 -7 -4 -11 -9z"/>
<path d="M2335 1341 c-6 -11 13 -26 22 -17 4 3 1 6 -6 6 -7 0 -9 5 -6 10 3 6
4 10 1 10 -3 0 -7 -4 -11 -9z"/>
<path d="M2230 1331 c0 -9 30 -24 36 -18 2 1 -6 8 -16 15 -11 7 -20 8 -20 3z"/>
<path d="M2415 1330 c-4 -6 -11 -8 -16 -5 -16 11 -10 -12 8 -26 12 -10 15 -11
9 -1 -4 7 -2 19 4 27 7 8 10 15 7 15 -3 0 -9 -5 -12 -10z"/>
<path d="M2215 1310 c0 -8 7 -14 14 -12 8 2 11 -5 6 -20 -5 -20 -4 -21 5 -5
12 18 5 41 -10 32 -5 -3 -10 0 -13 7 -2 7 -3 6 -2 -2z"/>
<path d="M2310 1300 c0 -5 5 -10 10 -10 6 0 10 5 10 10 0 6 -4 10 -10 10 -5 0
-10 -4 -10 -10z"/>
<path d="M2365 1299 c-4 -6 -5 -12 -2 -15 2 -3 7 2 10 11 7 17 1 20 -8 4z"/>
<path d="M1761 1286 c-9 -11 -9 -15 1 -19 10 -4 10 -6 1 -6 -7 -1 -13 -6 -13
-12 0 -8 4 -8 14 0 7 6 22 9 32 5 18 -5 18 -5 2 6 -10 6 -18 16 -18 23 0 7 4
6 10 -3 5 -8 12 -11 17 -7 4 5 1 12 -7 17 -20 13 -26 12 -39 -4z"/>
<path d="M2271 1284 c0 -11 3 -14 6 -6 3 7 2 16 -1 19 -3 4 -6 -2 -5 -13z"/>
<path d="M2294 1275 c1 -8 6 -18 11 -22 4 -4 5 -3 2 4 -4 6 -2 13 5 15 8 3 6
6 -4 10 -10 4 -15 2 -14 -7z"/>
<path d="M2170 1271 c0 -5 5 -13 10 -16 6 -3 10 -2 10 4 0 5 -4 13 -10 16 -5
3 -10 2 -10 -4z"/>
<path d="M2146 1255 c-3 -8 -3 -22 0 -30 7 -17 24 -20 24 -5 0 6 -4 10 -10 10
-5 0 -10 5 -10 11 0 5 4 7 10 4 6 -3 7 1 4 9 -8 20 -10 20 -18 1z"/>
<path d="M2256 1257 c3 -10 9 -15 12 -12 3 3 0 11 -7 18 -10 9 -11 8 -5 -6z"/>
<path d="M2353 1255 c0 -8 4 -12 9 -9 4 3 8 9 8 15 0 5 -4 9 -8 9 -5 0 -9 -7
-9 -15z"/>
<path d="M1687 1239 c20 -24 4 -73 -20 -63 -7 2 -21 -4 -32 -15 -14 -16 -15
-24 -6 -35 9 -10 9 -16 1 -21 -6 -4 -14 -4 -17 -1 -4 3 -15 -1 -25 -11 -13
-11 -18 -12 -18 -3 0 10 -3 10 -15 0 -8 -7 -12 -16 -9 -22 7 -10 -15 -40 -25
-34 -3 2 -15 -2 -26 -10 -16 -12 -17 -16 -5 -27 10 -9 12 -9 6 1 -6 11 0 14
20 11 4 0 11 5 15 13 5 7 9 8 9 2 0 -16 28 -13 34 3 3 8 2 11 -3 8 -5 -3 -13
0 -17 6 -5 8 -3 9 6 4 8 -5 11 -4 6 3 -8 13 10 26 24 17 7 -4 6 -13 -1 -26 -9
-18 -8 -19 8 -10 16 8 19 6 19 -13 0 -12 -6 -23 -13 -23 -10 0 -10 3 0 16 10
12 9 14 -8 7 -11 -5 -26 -9 -32 -9 -7 0 -13 -5 -13 -11 0 -7 -3 -7 -8 -1 -4 6
-13 11 -21 13 -12 3 -12 1 -1 -13 11 -13 10 -18 -6 -29 -10 -8 -22 -12 -26
-10 -4 3 -5 -3 -1 -12 5 -13 3 -15 -7 -9 -9 5 -11 4 -6 -4 6 -9 11 -9 21 -1 9
8 15 8 20 0 10 -16 27 -1 20 19 -7 24 20 47 38 32 8 -6 17 -7 21 -3 4 4 13 7
19 7 15 0 17 45 4 63 -14 18 -2 25 22 13 21 -12 40 2 20 14 -5 4 -8 13 -5 21
3 7 -2 20 -10 29 -9 8 -11 15 -4 15 6 0 15 -11 21 -24 7 -14 18 -23 28 -21 9
2 18 4 20 4 2 1 -2 8 -9 16 -6 8 -9 18 -6 23 3 5 -2 9 -12 9 -41 0 -48 3 -32
13 9 5 19 5 27 -2 10 -8 13 -6 13 5 0 8 7 17 15 21 9 3 12 12 8 22 -4 12 -2
15 8 12 8 -3 13 -11 12 -17 -2 -6 2 -11 7 -11 6 0 5 -8 -2 -19 -9 -15 -15 -17
-25 -9 -14 11 -18 0 -5 -17 13 -18 41 -17 37 2 -1 10 7 25 18 35 18 14 19 19
8 32 -7 9 -17 13 -22 10 -5 -2 -23 3 -41 12 -25 13 -30 14 -21 3z m78 -28 c3
-5 2 -12 -3 -15 -5 -3 -9 1 -9 9 0 17 3 19 12 6z m-74 -98 c13 -16 12 -17 -3
-4 -17 13 -22 21 -14 21 2 0 10 -8 17 -17z m-50 -16 c-6 -8 -7 -18 -3 -22 4
-5 1 -5 -6 -1 -10 6 -10 11 -1 22 6 8 14 14 16 14 3 0 0 -6 -6 -13z m-34 -12
c0 -8 -4 -12 -9 -9 -5 3 -6 10 -3 15 9 13 12 11 12 -6z m-77 -145 c0 -5 -2
-10 -4 -10 -3 0 -8 5 -11 10 -3 6 -1 10 4 10 6 0 11 -4 11 -10z"/>
<path d="M2195 1240 c-13 -6 -15 -9 -5 -9 8 0 22 4 30 9 18 12 2 12 -25 0z"/>
<path d="M2277 1236 c-3 -8 0 -17 7 -19 10 -4 12 1 9 14 -6 23 -9 24 -16 5z"/>
<path d="M2214 1218 c-4 -7 -4 -10 1 -6 4 4 14 0 21 -10 7 -9 14 -12 14 -6 0
6 -6 17 -14 23 -11 9 -16 9 -22 -1z"/>
<path d="M2318 1208 c12 -16 35 -18 48 -6 3 4 -2 5 -13 4 -10 -2 -25 2 -33 8
-13 9 -13 9 -2 -6z"/>
<path d="M2120 1195 c0 -8 2 -15 4 -15 2 0 6 7 10 15 3 8 1 15 -4 15 -6 0 -10
-7 -10 -15z"/>
<path d="M1715 1180 c-3 -5 -1 -10 4 -10 6 0 11 5 11 10 0 6 -2 10 -4 10 -3 0
-8 -4 -11 -10z"/>
<path d="M2087 1175 c-15 -11 -17 -17 -7 -32 10 -15 11 -16 6 -1 -3 10 2 21
12 27 9 5 15 12 12 14 -3 3 -13 -1 -23 -8z"/>
<path d="M2190 1180 c0 -5 5 -10 10 -10 6 0 10 5 10 10 0 6 -4 10 -10 10 -5 0
-10 -4 -10 -10z"/>
<path d="M2270 1174 c6 -6 6 -15 2 -19 -4 -5 -1 -5 6 -1 7 4 10 11 7 16 -3 4
1 10 7 13 7 3 3 4 -9 4 -15 -1 -19 -5 -13 -13z"/>
<path d="M2130 1160 c0 -5 5 -10 10 -10 6 0 10 5 10 10 0 6 -4 10 -10 10 -5 0
-10 -4 -10 -10z"/>
<path d="M2224 1152 c0 -10 8 -18 18 -18 16 0 16 2 1 18 -9 10 -17 18 -17 18
-1 0 -2 -8 -2 -18z"/>
<path d="M2299 1153 c-13 -16 -12 -17 4 -4 9 7 17 15 17 17 0 8 -8 3 -21 -13z"/>
<path d="M2457 1155 c-4 -8 -3 -16 1 -19 4 -3 9 4 9 15 2 23 -3 25 -10 4z"/>
<path d="M2393 1145 c0 -8 4 -12 9 -9 5 3 6 10 3 15 -9 13 -12 11 -12 -6z"/>
<path d="M2155 1139 c-4 -6 -5 -12 -2 -15 2 -3 7 2 10 11 7 17 1 20 -8 4z"/>
<path d="M2104 1126 c-16 -12 -17 -17 -6 -28 11 -11 12 -10 6 6 -5 13 -4 17 3
13 6 -4 13 0 17 8 7 19 5 19 -20 1z"/>
<path d="M2073 1092 c0 -11 5 -18 9 -16 4 3 8 0 8 -7 0 -7 3 -10 6 -6 3 3 -1
16 -9 28 -16 22 -16 22 -14 1z"/>
<path d="M2158 1103 c7 -3 16 -2 19 1 4 3 -2 6 -13 5 -11 0 -14 -3 -6 -6z"/>
<path d="M2193 1095 c0 -8 4 -12 9 -9 5 3 6 10 3 15 -9 13 -12 11 -12 -6z"/>
<path d="M2030 1080 c0 -5 7 -7 15 -4 8 4 15 8 15 10 0 2 -7 4 -15 4 -8 0 -15
-4 -15 -10z"/>
<path d="M2126 1078 c3 -4 9 -8 15 -8 5 0 9 4 9 8 0 5 -7 9 -15 9 -8 0 -12 -4
-9 -9z"/>
<path d="M2475 1069 c-4 -6 -5 -12 -2 -15 2 -3 7 2 10 11 7 17 1 20 -8 4z"/>
<path d="M1973 1054 c-3 -8 -9 -11 -14 -8 -5 3 -9 0 -9 -5 0 -15 20 -14 26 2
2 7 13 13 24 14 16 1 18 -1 8 -17 -7 -10 -15 -17 -19 -14 -5 2 -12 -4 -18 -14
-7 -14 -6 -19 4 -19 7 0 11 7 7 15 -3 9 -1 13 5 9 6 -4 18 4 27 18 9 14 15 26
14 26 -17 8 -51 3 -55 -7z"/>
<path d="M2054 1063 c4 -7 2 -13 -3 -13 -6 0 -11 -5 -11 -11 0 -5 4 -8 9 -5 5
4 12 0 15 -6 2 -7 4 -3 2 9 -1 12 -6 26 -11 30 -4 5 -5 2 -1 -4z"/>
<path d="M2267 1059 c7 -7 15 -10 18 -7 3 3 -2 9 -12 12 -14 6 -15 5 -6 -5z"/>
<path d="M2395 1060 c3 -5 8 -10 11 -10 2 0 4 5 4 10 0 6 -5 10 -11 10 -5 0
-7 -4 -4 -10z"/>
<path d="M2093 1035 c0 -7 7 -11 15 -7 9 3 13 1 9 -5 -3 -5 0 -10 8 -10 17 0
10 14 -14 26 -13 7 -18 6 -18 -4z"/>
<path d="M2196 1038 c3 -5 10 -6 15 -3 13 9 11 12 -6 12 -8 0 -12 -4 -9 -9z"/>
<path d="M2230 1022 c0 -5 7 -9 15 -9 8 0 12 4 9 9 -3 4 -9 8 -15 8 -5 0 -9
-4 -9 -8z"/>
<path d="M2335 1020 c3 -5 8 -10 11 -10 2 0 4 5 4 10 0 6 -5 10 -11 10 -5 0
-7 -4 -4 -10z"/>
<path d="M2066 1000 c5 -8 9 -21 10 -28 2 -8 5 -17 8 -20 4 -3 5 4 3 16 -2 12
-9 28 -17 35 -10 10 -11 9 -4 -3z"/>
<path d="M2160 1000 c-9 -6 -10 -10 -3 -10 6 0 15 5 18 10 8 12 4 12 -15 0z"/>
<path d="M1850 981 c0 -6 5 -11 11 -11 5 0 7 -4 4 -10 -3 -5 -1 -10 4 -10 16
0 13 16 -4 30 -10 9 -15 9 -15 1z"/>
<path d="M2286 978 c3 -5 10 -6 15 -3 13 9 11 12 -6 12 -8 0 -12 -4 -9 -9z"/>
<path d="M1955 970 c-3 -5 -3 -10 2 -10 4 0 1 -5 -7 -11 -10 -7 -11 -9 -2 -7
8 2 13 7 12 12 -1 5 4 13 12 17 9 6 9 9 1 9 -6 0 -15 -4 -18 -10z"/>
<path d="M1735 961 c-2 -5 5 -9 18 -8 12 0 31 -3 42 -7 14 -6 16 -5 6 2 -11 8
-11 10 0 14 8 3 -3 5 -23 6 -21 1 -40 -3 -43 -7z"/>
<path d="M1820 963 c0 -17 19 -37 27 -29 4 5 2 11 -5 13 -6 3 -10 9 -6 14 3 5
0 9 -5 9 -6 0 -11 -3 -11 -7z"/>
<path d="M1425 949 c-11 -17 1 -21 15 -4 8 9 8 15 2 15 -6 0 -14 -5 -17 -11z"/>
<path d="M1974 939 c-4 -8 -3 -9 4 -5 16 10 15 -6 0 -24 -11 -12 -10 -12 3 -2
8 6 28 9 44 6 16 -3 27 -2 23 1 -3 4 -13 7 -21 9 -8 1 -22 8 -30 14 -12 10
-17 10 -23 1z"/>
<path d="M2047 939 c7 -7 15 -10 18 -7 3 3 -2 9 -12 12 -14 6 -15 5 -6 -5z"/>
<path d="M2106 942 c-2 -4 4 -8 14 -8 10 0 16 4 14 8 -3 4 -9 8 -14 8 -5 0
-11 -4 -14 -8z"/>
<path d="M2250 939 c0 -5 5 -7 10 -4 6 3 10 8 10 11 0 2 -4 4 -10 4 -5 0 -10
-5 -10 -11z"/>
<path d="M1733 922 c10 -13 8 -14 -13 -7 -24 7 -24 7 -5 -8 18 -15 21 -14 29
4 10 20 21 24 30 10 3 -5 -1 -11 -9 -15 -8 -3 -15 -12 -15 -21 0 -18 16 -20
26 -3 4 7 3 8 -4 4 -19 -11 -14 5 5 20 22 16 12 27 -27 29 -25 2 -28 0 -17
-13z"/>
<path d="M1866 932 c-3 -5 1 -9 9 -9 8 0 12 4 9 9 -3 4 -7 8 -9 8 -2 0 -6 -4
-9 -8z"/>
<path d="M1810 923 c14 -7 12 -23 -2 -20 -8 1 -12 -7 -11 -20 2 -14 -2 -22
-10 -20 -7 1 -12 -8 -12 -22 0 -19 5 -24 27 -25 14 -1 24 2 21 7 -3 5 -14 7
-24 4 -14 -4 -19 0 -19 14 0 10 6 18 13 17 7 -2 11 6 10 19 -2 14 2 22 10 20
6 -1 12 4 12 12 0 8 -6 15 -13 17 -7 1 -8 0 -2 -3z"/>
<path d="M1930 926 c0 -2 7 -7 16 -10 8 -3 12 -2 9 4 -6 10 -25 14 -25 6z"/>
<path d="M2286 922 c-3 -5 1 -9 9 -9 8 0 12 4 9 9 -3 4 -7 8 -9 8 -2 0 -6 -4
-9 -8z"/>
<path d="M2074 906 c1 -8 5 -18 8 -22 4 -3 5 1 4 10 -1 8 -5 18 -8 22 -4 3 -5
-1 -4 -10z"/>
<path d="M1475 900 c3 -5 8 -10 11 -10 2 0 4 5 4 10 0 6 -5 10 -11 10 -5 0 -7
-4 -4 -10z"/>
<path d="M1853 897 c-3 -5 -2 -11 1 -14 3 -4 6 -1 6 6 0 7 4 10 8 7 4 -2 14
-1 22 4 11 7 9 9 -8 7 -13 -1 -26 -5 -29 -10z"/>
<path d="M1705 888 c8 -20 -10 -25 -19 -5 -3 6 -3 1 0 -12 4 -16 2 -21 -5 -17
-7 5 -8 1 -4 -10 5 -13 3 -15 -8 -9 -12 7 -12 6 1 -11 22 -29 24 -30 17 -12
-3 10 3 28 15 43 16 20 18 29 9 38 -9 9 -11 8 -6 -5z"/>
<path d="M1932 891 c-11 -7 -11 -9 0 -14 9 -3 15 1 15 9 0 8 -1 14 -1 14 -1 0
-7 -4 -14 -9z"/>
<path d="M2014 880 c0 -13 4 -16 10 -10 7 7 7 13 0 20 -6 6 -10 3 -10 -10z"/>
<path d="M1390 879 c0 -6 -9 -8 -22 -4 -13 3 -18 3 -12 -2 6 -4 10 -15 9 -24
-2 -9 4 -16 11 -16 8 0 14 4 14 8 0 4 8 6 18 5 9 -2 17 -9 17 -16 0 -7 7 -14
16 -16 24 -3 18 17 -14 49 -30 30 -37 33 -37 16z m20 -17 c0 -5 -7 -9 -15 -9
-8 0 -12 4 -9 9 3 4 9 8 15 8 5 0 9 -4 9 -8z"/>
<path d="M1831 874 c0 -11 3 -14 6 -6 3 7 2 16 -1 19 -3 4 -6 -2 -5 -13z"/>
<path d="M1880 880 c-8 -5 -10 -10 -5 -10 6 0 17 5 25 10 8 5 11 10 5 10 -5 0
-17 -5 -25 -10z"/>
<path d="M2496 882 c-3 -5 1 -9 9 -9 8 0 12 4 9 9 -3 4 -7 8 -9 8 -2 0 -6 -4
-9 -8z"/>
<path d="M1730 861 c0 -5 7 -12 16 -15 14 -5 15 -4 4 9 -14 17 -20 19 -20 6z"/>
<path d="M1959 853 c-13 -16 -12 -17 4 -4 16 13 21 21 13 21 -2 0 -10 -8 -17
-17z"/>
<path d="M1893 845 c0 -7 6 -11 14 -8 7 3 13 6 13 8 0 2 -6 5 -13 8 -8 3 -14
-1 -14 -8z"/>
<path d="M1715 840 c3 -6 1 -10 -6 -10 -7 0 -10 -3 -6 -6 3 -3 13 -2 22 4 16
8 16 9 1 15 -10 4 -15 3 -11 -3z"/>
<path d="M1812 846 c2 -1 12 -8 22 -16 11 -8 17 -10 13 -3 -4 6 -1 13 5 16 7
2 0 4 -15 4 -15 0 -27 0 -25 -1z"/>
<path d="M1750 825 c0 -5 5 -17 10 -25 5 -8 10 -10 10 -5 0 6 -5 17 -10 25 -5
8 -10 11 -10 5z"/>
<path d="M1905 820 c-3 -6 1 -7 9 -4 18 7 21 14 7 14 -6 0 -13 -4 -16 -10z"/>
<path d="M1951 813 c7 -12 15 -20 18 -17 3 2 -3 12 -13 22 -17 16 -18 16 -5
-5z"/>
<path d="M1993 809 c-2 -23 3 -25 10 -4 4 8 3 16 -1 19 -4 3 -9 -4 -9 -15z"/>
<path d="M2130 819 c0 -5 5 -7 10 -4 6 3 10 8 10 11 0 2 -4 4 -10 4 -5 0 -10
-5 -10 -11z"/>
<path d="M1645 810 c3 -6 1 -10 -6 -10 -7 0 -10 -3 -6 -6 3 -3 13 -2 22 4 16
8 16 9 1 15 -10 4 -15 3 -11 -3z"/>
<path d="M1270 800 c0 -5 5 -10 10 -10 6 0 10 5 10 10 0 6 -4 10 -10 10 -5 0
-10 -4 -10 -10z"/>
<path d="M1697 795 c-7 -17 3 -25 29 -21 21 3 26 28 6 32 -7 1 -8 0 -2 -3 16
-8 12 -19 -9 -20 -14 -1 -18 3 -14 13 3 8 3 14 0 14 -3 0 -7 -7 -10 -15z"/>
<path d="M1870 806 c0 -2 7 -7 16 -10 8 -3 12 -2 9 4 -6 10 -25 14 -25 6z"/>
<path d="M1914 798 c-4 -7 -4 -10 1 -6 4 4 15 2 24 -5 14 -11 14 -10 2 6 -16
20 -18 21 -27 5z"/>
<path d="M1638 765 c-29 -25 -40 -47 -13 -25 18 15 20 -1 3 -18 -9 -9 -9 -12
0 -12 11 0 13 5 16 37 1 7 10 19 21 27 11 9 16 15 10 15 -5 0 -22 -11 -37 -24z"/>
<path d="M1842 782 c-9 -6 -7 -13 10 -28 17 -14 19 -15 9 -2 -7 9 -10 22 -6
28 7 12 4 12 -13 2z"/>
<path d="M1280 755 c-35 -26 -60 -32 -60 -15 0 6 -13 1 -30 -11 -23 -18 -27
-26 -19 -40 7 -13 5 -20 -7 -27 -14 -8 -14 -10 0 -25 11 -10 30 -14 61 -12 25
1 43 -1 40 -5 -3 -5 15 -7 40 -5 25 1 42 -1 40 -6 -3 -4 3 -6 15 -4 11 2 22 0
25 -5 7 -11 45 10 45 24 0 5 -9 1 -20 -9 -25 -22 -26 -9 -3 19 10 12 14 18 9
14 -5 -4 -17 -3 -28 3 -13 7 -16 14 -9 26 6 12 2 26 -16 50 -14 18 -21 33 -17
33 9 0 -17 20 -27 20 -3 0 -20 -11 -39 -25z m62 -35 c-3 -8 -2 -12 3 -8 15 14
35 -13 25 -32 -8 -15 -5 -22 11 -34 l21 -14 -20 -11 c-13 -7 -23 -7 -26 -2 -4
5 -21 8 -39 7 -18 -2 -40 3 -49 12 -13 11 -18 12 -18 2 0 -7 -9 -2 -20 11 -10
13 -19 19 -20 13 0 -5 5 -15 10 -20 8 -8 3 -11 -16 -10 -35 2 -43 22 -13 31
20 7 20 8 6 17 -22 12 -21 25 2 38 17 9 19 7 15 -15 -4 -25 -4 -26 21 -9 29
19 32 26 8 18 -10 -3 -7 1 6 9 14 8 31 13 38 10 8 -3 13 0 11 8 -2 8 3 13 10
12 6 -2 12 2 12 9 0 6 6 3 14 -7 8 -11 11 -26 8 -35z"/>
<path d="M1304 743 c3 -3 1 -15 -5 -26 -6 -10 -7 -17 -2 -14 5 4 10 0 10 -8 0
-8 -5 -11 -10 -8 -6 4 -7 1 -2 -7 6 -9 4 -11 -5 -5 -8 5 -11 4 -7 -1 3 -6 -5
-10 -18 -10 -13 0 -21 4 -19 8 3 5 9 6 14 3 4 -3 14 3 21 12 12 15 12 16 -6
10 -19 -7 -19 -6 -2 7 10 8 14 17 9 20 -5 3 -15 -6 -22 -19 -7 -13 -17 -22
-21 -19 -15 9 -19 -14 -4 -26 8 -7 15 -9 15 -5 0 4 7 1 16 -6 18 -15 47 -22
39 -9 -3 4 3 14 12 21 14 12 15 11 10 -11 -4 -14 -4 -19 -1 -12 5 10 10 10 24
-3 10 -9 21 -12 24 -7 3 5 -1 15 -9 22 -11 9 -12 17 -4 31 10 19 9 20 -13 23
-7 0 -13 10 -13 20 0 11 -8 20 -18 22 -11 1 -16 0 -13 -3z m21 -13 c-8 -13 14
-42 26 -34 5 3 6 -2 3 -11 -4 -9 -12 -14 -18 -12 -6 3 -21 -4 -32 -15 -16 -15
-24 -16 -29 -7 -5 7 -4 10 2 6 15 -9 41 24 37 47 -3 20 3 36 12 36 3 0 2 -5
-1 -10z m36 -87 c13 -16 12 -17 -3 -4 -17 13 -22 21 -14 21 2 0 10 -8 17 -17z"/>
<path d="M1190 699 c0 -5 5 -7 10 -4 6 3 10 8 10 11 0 2 -4 4 -10 4 -5 0 -10
-5 -10 -11z"/>
<path d="M1186 652 c-3 -5 1 -9 9 -9 8 0 12 4 9 9 -3 4 -7 8 -9 8 -2 0 -6 -4
-9 -8z"/>
<path d="M1750 765 c-7 -9 -11 -17 -9 -20 3 -2 10 5 17 15 14 24 10 26 -8 5z"/>
<path d="M1793 773 c-18 -7 -16 -20 2 -20 8 0 12 4 9 8 -2 4 2 10 8 12 7 3 9
5 3 5 -5 0 -16 -2 -22 -5z"/>
<path d="M1894 760 c0 -13 4 -16 10 -10 7 7 7 13 0 20 -6 6 -10 3 -10 -10z"/>
<path d="M1670 760 c-13 -8 -12 -10 3 -10 9 0 17 5 17 10 0 12 -1 12 -20 0z"/>
<path d="M1707 749 c-14 -8 -16 -14 -6 -25 6 -8 16 -14 22 -14 6 0 2 7 -9 16
-13 11 -14 14 -3 11 9 -3 16 1 16 9 0 8 -1 14 -1 14 -1 0 -9 -5 -19 -11z"/>
<path d="M1820 746 c0 -2 8 -10 18 -17 15 -13 16 -12 3 4 -13 16 -21 21 -21
13z"/>
<path d="M2015 740 c3 -5 8 -10 11 -10 2 0 4 5 4 10 0 6 -5 10 -11 10 -5 0 -7
-4 -4 -10z"/>
<path d="M1915 731 c-3 -5 -2 -12 3 -15 5 -3 9 1 9 9 0 17 -3 19 -12 6z"/>
<path d="M1590 725 c0 -5 5 -17 10 -25 5 -8 10 -10 10 -5 0 6 -5 17 -10 25 -5
8 -10 11 -10 5z"/>
<path d="M1667 713 c5 -12 3 -14 -7 -8 -9 5 -11 4 -6 -4 4 -6 12 -9 17 -6 12
8 12 35 -1 35 -5 0 -6 -7 -3 -17z"/>
<path d="M1751 727 c2 -1 13 -9 24 -17 19 -14 19 -14 6 3 -7 9 -18 17 -24 17
-6 0 -8 -1 -6 -3z"/>
<path d="M1940 726 c0 -2 8 -10 18 -17 15 -13 16 -12 3 4 -13 16 -21 21 -21
13z"/>
<path d="M1478 693 c-10 -16 -18 -22 -18 -15 0 6 -8 12 -17 12 -15 0 -15 -1 2
-13 10 -8 15 -19 12 -24 -4 -6 3 -19 14 -29 11 -10 19 -14 18 -9 -6 20 12 55
24 48 7 -3 3 3 -7 15 -20 23 -10 30 14 10 8 -7 6 -3 -4 10 -11 12 -20 22 -20
22 -1 0 -9 -12 -18 -27z m10 -38 c-6 -13 -15 -22 -21 -18 -5 3 -4 8 3 13 6 4
11 10 11 14 -3 19 0 27 9 21 6 -4 5 -15 -2 -30z"/>
<path d="M365 698 c18 -13 125 -74 245 -140 25 -14 61 -34 81 -45 71 -41 104
-57 112 -55 4 1 7 -3 7 -10 0 -6 3 -9 6 -5 3 3 18 -5 32 -19 29 -26 42 -30 42
-13 0 5 -4 8 -8 5 -5 -3 -17 4 -26 16 -15 18 -16 20 -2 15 9 -4 21 2 29 13 8
11 17 17 20 13 4 -3 -2 -12 -13 -20 -25 -18 -25 -28 -1 -30 14 -1 18 3 14 13
-3 8 1 14 11 14 9 0 16 4 16 8 0 10 -41 47 -61 55 -12 5 -12 6 0 6 8 1 23 -6
33 -15 16 -16 18 -15 26 6 8 21 9 21 16 5 6 -17 7 -17 27 1 11 10 17 24 14 32
-3 8 0 21 7 29 10 12 13 11 23 -8 7 -12 15 -17 18 -12 4 6 -3 20 -14 31 -11
12 -16 22 -11 22 6 0 17 -11 25 -24 12 -17 13 -26 4 -35 -13 -13 2 -15 21 -2
18 11 17 20 -2 34 -14 10 -12 12 10 14 16 0 22 -2 15 -7 -9 -5 -8 -9 4 -14 23
-9 27 -8 19 5 -5 8 -1 8 14 0 24 -13 26 -51 2 -44 -9 3 -11 1 -5 -4 6 -4 11
-15 13 -23 2 -11 -1 -10 -12 3 -9 12 -16 14 -21 8 -3 -6 -1 -11 6 -11 8 0 8
-5 -2 -16 -11 -14 -10 -19 9 -34 24 -20 28 -30 12 -30 -6 0 -19 15 -31 33 -14
22 -19 26 -17 12 2 -11 8 -23 13 -27 6 -5 6 -8 -2 -8 -6 0 -15 5 -18 10 -4 6
-12 7 -18 3 -7 -4 -5 2 3 13 14 19 14 19 -7 1 -12 -11 -26 -16 -32 -12 -7 3
-8 0 -5 -9 3 -9 10 -14 14 -11 5 3 12 0 16 -6 5 -8 3 -9 -7 -4 -12 7 -12 6 -1
-8 10 -12 11 -21 3 -34 -8 -14 -10 -15 -11 -3 0 13 -2 13 -9 1 -7 -11 -13 -12
-23 -4 -7 6 -23 9 -36 8 -12 -1 -28 5 -35 14 -10 14 -10 14 5 3 12 -10 18 -10
23 -1 6 8 10 7 17 -2 8 -12 9 -12 6 0 -5 16 -55 24 -64 10 -7 -13 25 -38 49
-39 9 0 17 -3 17 -7 0 -5 12 -16 25 -26 19 -13 23 -14 19 -3 -4 10 0 14 12 12
10 -2 20 -9 22 -16 3 -8 0 -10 -9 -5 -12 7 -12 6 0 -6 10 -11 15 -11 18 -1 3
6 9 10 13 7 5 -3 7 -12 4 -19 -7 -19 9 -27 26 -14 12 8 11 9 -4 4 -12 -4 -17
-2 -13 7 3 7 -1 21 -9 32 -17 23 -18 35 -1 31 6 -1 9 -1 5 1 -5 3 -8 10 -8 16
0 5 3 7 7 4 3 -4 12 -2 20 4 11 9 13 7 10 -10 -2 -13 -8 -26 -14 -29 -8 -5 -7
-13 2 -26 8 -10 17 -16 22 -13 11 7 36 -13 50 -37 6 -11 22 -20 36 -20 14 -1
23 2 20 7 -3 5 -14 6 -25 4 -12 -4 -18 -1 -15 6 3 7 10 11 16 9 7 -1 9 3 6 9
-5 7 -11 7 -17 1 -11 -11 -55 26 -50 42 2 5 -5 17 -14 27 -9 11 -12 19 -6 19
14 0 43 -41 36 -52 -3 -4 3 -5 12 -1 12 4 15 3 10 -5 -4 -7 -2 -12 3 -12 17 0
13 14 -9 33 -21 18 -27 37 -11 37 5 0 11 -6 14 -12 2 -7 3 -6 3 2 -1 9 -10 14
-24 13 -15 -2 -20 2 -16 12 4 8 10 12 15 9 5 -3 6 2 3 10 -10 26 5 18 24 -12
17 -28 17 -28 45 -12 l28 17 -25 0 c-14 1 -23 -3 -20 -8 3 -5 1 -9 -4 -9 -8 0
-22 22 -22 34 0 2 21 2 46 0 26 -1 41 1 35 5 -7 4 -13 17 -14 29 0 11 -5 18
-9 16 -4 -3 -8 0 -8 6 0 6 8 10 17 8 10 -2 18 -10 18 -18 0 -19 33 -66 40 -58
3 3 -1 10 -9 17 -11 10 -9 16 15 42 21 22 28 38 25 60 -3 29 -16 53 -16 31 0
-7 -5 -12 -11 -12 -5 0 -8 4 -5 8 3 5 0 9 -7 10 -7 1 -25 4 -42 6 -16 2 -37 6
-46 10 -9 4 -20 6 -25 5 -5 -1 -11 0 -14 1 -3 1 -18 4 -35 6 -84 10 -106 14
-113 18 -8 5 -131 19 -169 20 -13 0 -23 3 -23 6 0 4 -15 7 -34 8 -18 1 -52 5
-75 11 -29 6 -41 6 -41 -3 0 -8 -2 -8 -8 0 -7 10 -154 37 -272 50 -49 5 -53 4
-35 -8z m514 -107 c7 -13 6 -18 -4 -18 -7 0 -11 7 -7 15 3 9 1 13 -5 9 -5 -3
-10 0 -10 8 0 17 14 10 26 -14z m41 14 c-7 -8 -17 -15 -23 -15 -6 0 -2 7 9 15
25 19 30 19 14 0z m32 -4 c-8 -4 -12 -12 -10 -17 1 -5 -8 -10 -22 -11 l-25 -2
25 8 c14 5 21 9 17 10 -13 2 3 21 16 21 8 0 8 -3 -1 -9z m38 -1 c0 -5 -4 -10
-10 -10 -5 0 -10 5 -10 10 0 6 5 10 10 10 6 0 10 -4 10 -10z m178 -20 c1 -2
11 -3 21 -4 11 0 22 -4 26 -8 4 -4 13 -4 21 -1 17 6 19 -13 2 -23 -7 -4 -8 -3
-4 4 5 8 2 10 -8 6 -10 -4 -16 -1 -16 7 0 7 -3 9 -6 6 -4 -4 1 -18 10 -32 11
-17 13 -25 5 -25 -7 0 -9 -3 -6 -7 4 -3 16 2 27 12 11 10 23 16 26 12 3 -3 -6
-13 -20 -22 -19 -12 -29 -14 -43 -6 -11 6 -13 11 -5 11 8 0 10 5 5 13 -8 12
-9 17 -12 40 -1 8 -4 8 -10 -3 -6 -8 -7 -18 -4 -24 3 -5 1 -6 -5 -2 -8 5 -10
1 -5 -10 5 -13 2 -16 -9 -12 -8 4 -15 1 -15 -7 0 -10 5 -11 18 -4 22 11 32 -2
14 -18 -9 -9 -15 -9 -17 -2 -2 7 -8 6 -16 -4 -10 -12 -8 -14 18 -11 17 2 28 0
25 -5 -3 -5 0 -13 6 -17 8 -4 9 -3 5 4 -10 16 7 15 23 0 10 -11 11 -10 6 5 -4
9 -13 17 -21 17 -8 0 -14 5 -14 10 0 16 15 12 35 -10 22 -25 14 -35 -31 -36
-23 -1 -31 2 -27 10 4 6 -1 5 -10 -2 -9 -8 -19 -23 -23 -35 -6 -20 -7 -20 -26
4 -17 21 -18 22 -16 4 2 -11 -3 -20 -9 -21 -7 -1 -17 -2 -22 -3 -5 0 -8 -12
-6 -26 1 -17 -1 -22 -9 -16 -6 5 -21 7 -32 5 -12 -2 -28 4 -35 14 -12 15 -12
15 1 5 9 -6 25 -10 35 -8 11 2 23 4 26 4 8 1 5 53 -4 68 -8 13 10 12 31 -1 7
-4 16 -5 19 -2 4 3 14 -1 23 -9 16 -14 18 -14 24 2 5 11 0 22 -13 33 -20 14
-16 43 5 41 5 -1 10 4 10 9 1 6 2 11 4 13 7 9 7 43 -1 53 -7 9 -5 11 8 9 10
-2 19 -4 21 -5z m-200 -25 c0 -14 -4 -28 -9 -30 -6 -4 -6 39 0 53 4 9 9 -2 9
-23z m-138 5 c0 -4 -8 -7 -17 -5 -10 1 -25 -3 -33 -9 -13 -9 -13 -8 -3 4 13
17 53 24 53 10z m470 -19 c0 -16 -13 -21 -27 -10 -9 9 -17 8 -27 0 -11 -9 -16
-9 -22 0 -4 8 -3 9 4 5 6 -4 17 2 24 13 9 15 16 17 30 10 10 -5 18 -13 18 -18z
m-434 -3 c4 -7 3 -8 -4 -4 -7 4 -12 2 -12 -5 0 -7 -3 -10 -6 -6 -6 5 3 27 11
27 2 0 7 -5 11 -12z m56 5 c-20 -4 -21 -7 -10 -21 12 -15 11 -16 -4 -3 -22 16
-14 31 15 30 21 -2 21 -2 -1 -6z m405 -15 c-3 -27 -15 -48 -41 -68 -18 -14
-19 -13 -14 1 4 9 2 21 -4 27 -11 11 -1 35 11 27 5 -2 16 4 26 15 23 25 24 25
22 -2z m-486 -49 c-5 -13 -10 -19 -10 -12 -1 15 10 45 15 40 3 -2 0 -15 -5
-28z m-46 1 c3 -6 -1 -7 -9 -4 -18 7 -21 14 -7 14 6 0 13 -4 16 -10z m79 -5
c-4 -8 -10 -15 -15 -15 -4 0 -6 7 -3 15 4 8 10 15 15 15 4 0 6 -7 3 -15z m251
-145 c-5 -8 -11 -8 -17 -2 -6 6 -7 16 -3 22 5 8 11 8 17 2 6 -6 7 -16 3 -22z"/>
<path d="M1154 560 c0 -13 4 -16 10 -10 7 7 7 13 0 20 -6 6 -10 3 -10 -10z"/>
<path d="M1120 480 c-9 -6 -10 -10 -3 -10 6 0 15 5 18 10 8 12 4 12 -15 0z"/>
<path d="M1054 423 c2 -9 11 -17 20 -19 17 -2 17 -2 0 17 -21 23 -23 23 -20 2z"/>
<path d="M1297 505 c-8 -8 -18 -11 -22 -7 -5 4 -5 1 -1 -6 6 -11 12 -10 27 4
10 9 19 19 19 21 0 7 -9 2 -23 -12z"/>
<path d="M1694 702 c3 -5 0 -13 -6 -15 -9 -4 -10 -6 -1 -6 17 -1 25 16 12 25
-7 4 -9 3 -5 -4z"/>
<path d="M1839 708 c-5 -18 -6 -38 -1 -34 7 8 12 36 6 36 -2 0 -4 -1 -5 -2z"/>
<path d="M1572 684 c-7 -8 -8 -14 -3 -14 10 0 25 19 20 25 -2 1 -10 -3 -17
-11z"/>
<path d="M1733 685 c0 -8 7 -11 16 -7 14 5 14 4 1 -14 -14 -18 -14 -18 3 -5
22 17 22 27 -1 33 -11 3 -19 0 -19 -7z"/>
<path d="M1913 685 c0 -8 4 -12 9 -9 5 3 6 10 3 15 -9 13 -12 11 -12 -6z"/>
<path d="M1620 686 c0 -2 7 -6 15 -10 8 -3 15 -1 15 4 0 6 -7 10 -15 10 -8 0
-15 -2 -15 -4z"/>
<path d="M1946 682 c-3 -5 1 -9 9 -9 8 0 12 4 9 9 -3 4 -7 8 -9 8 -2 0 -6 -4
-9 -8z"/>
<path d="M1595 669 c-4 -6 -5 -12 -2 -15 2 -3 7 2 10 11 7 17 1 20 -8 4z"/>
<path d="M1614 659 c-3 -6 -1 -16 5 -22 9 -9 10 -7 5 7 -6 15 -4 17 6 11 9 -5
11 -4 6 3 -9 15 -13 15 -22 1z"/>
<path d="M1668 663 c7 -3 16 -2 19 1 4 3 -2 6 -13 5 -11 0 -14 -3 -6 -6z"/>
<path d="M1554 639 c1 -11 5 -19 10 -18 5 0 13 -5 18 -13 8 -10 9 -10 5 2 -2
8 -10 14 -16 13 -15 -4 -14 14 1 19 8 3 7 6 -4 10 -11 5 -15 1 -14 -13z"/>
<path d="M1714 649 c-3 -6 -2 -15 3 -20 5 -5 9 -1 9 11 0 23 -2 24 -12 9z"/>
<path d="M1645 639 c-11 -16 -1 -19 13 -3 7 8 8 14 3 14 -5 0 -13 -5 -16 -11z"/>
<path d="M1596 627 c3 -10 9 -15 12 -12 3 3 0 11 -7 18 -10 9 -11 8 -5 -6z"/>
<path d="M1530 599 c0 -5 5 -7 10 -4 6 3 10 8 10 11 0 2 -4 4 -10 4 -5 0 -10
-5 -10 -11z"/>
<path d="M990 561 c0 -6 5 -13 10 -16 11 -7 -35 -49 -55 -51 -25 -3 -27 -5
-14 -20 11 -14 10 -18 -6 -30 -19 -14 -12 -18 26 -15 8 1 21 -11 28 -26 12
-26 14 -27 26 -10 10 14 14 15 18 5 4 -9 6 -9 6 -1 1 6 -7 18 -17 25 -21 16
-23 43 -2 43 8 0 26 8 39 17 13 10 28 15 33 12 4 -3 8 0 8 5 0 6 -10 9 -22 7
-13 -3 -27 -5 -31 -5 -5 -1 -5 -6 -1 -13 5 -7 3 -8 -6 -3 -9 6 -11 4 -5 -5 6
-9 4 -11 -4 -5 -9 5 -10 10 -2 18 18 18 12 28 -8 15 -11 -7 -18 -15 -15 -19 2
-4 -1 -11 -7 -14 -5 -4 -8 -14 -5 -22 4 -9 2 -11 -6 -7 -7 5 -8 3 -3 -6 5 -8
4 -11 -3 -6 -6 4 -9 13 -5 22 3 9 0 14 -7 12 -7 -2 -15 4 -17 12 -4 13 -3 13
6 0 10 -13 11 -13 11 0 0 13 1 13 10 0 5 -8 10 -12 11 -7 1 4 3 12 4 17 1 6 3
15 4 21 0 5 5 8 10 4 5 -3 13 -1 16 5 5 8 11 7 21 -1 10 -8 14 -8 14 0 0 6 5
11 11 11 5 0 7 -5 3 -11 -5 -8 -1 -8 12 0 37 21 57 41 50 48 -4 4 -11 1 -15
-6 -6 -9 -11 -10 -15 -2 -4 6 -12 11 -17 11 -6 0 -8 -4 -4 -9 8 -14 -30 -32
-49 -25 -9 3 -16 12 -16 20 0 8 -4 14 -10 14 -5 0 -10 -4 -10 -9z m100 -21 c0
-5 -5 -10 -11 -10 -5 0 -7 5 -4 10 3 6 8 10 11 10 2 0 4 -4 4 -10z m-85 -128
c-3 -3 -11 0 -18 7 -9 10 -8 11 6 5 10 -3 15 -9 12 -12z"/>
<path d="M1350 566 c0 -4 7 -14 15 -22 8 -9 15 -11 15 -6 0 5 -7 15 -15 22 -8
7 -15 9 -15 6z"/>
<path d="M1402 545 c30 -36 41 -46 45 -42 5 6 -41 57 -51 57 -4 0 -1 -7 6 -15z"/>
<path d="M1351 523 c-1 -38 -5 -53 -13 -53 -4 0 -8 -5 -8 -10 0 -6 8 -5 20 2
11 7 15 15 9 19 -7 4 -5 9 5 12 9 4 16 1 16 -5 0 -6 3 -9 6 -5 4 3 -3 18 -14
32 -17 22 -21 23 -21 8z"/>
<path d="M1391 530 c0 -8 4 -22 9 -30 12 -18 12 -2 0 25 -6 13 -9 15 -9 5z"/>
<path d="M1400 472 c0 -7 -5 -11 -12 -9 -14 2 -23 -32 -11 -43 4 -4 17 -4 28
1 18 9 18 9 -2 5 -18 -3 -23 1 -23 16 0 10 4 17 9 13 11 -6 26 13 17 22 -3 4
-6 1 -6 -5z"/>
<path d="M1310 440 c0 -6 7 -10 15 -10 8 0 15 2 15 4 0 2 -7 6 -15 10 -8 3
-15 1 -15 -4z"/>
<path d="M1435 430 c-3 -6 1 -7 9 -4 18 7 21 14 7 14 -6 0 -13 -4 -16 -10z"/>
<path d="M1350 421 c0 -6 4 -13 10 -16 6 -3 7 1 4 9 -7 18 -14 21 -14 7z"/>
<path d="M1265 393 c4 -10 8 -26 11 -37 2 -10 6 -21 9 -25 4 -3 3 8 0 24 -4
17 -7 36 -7 43 -1 6 -6 12 -11 12 -5 0 -6 -8 -2 -17z"/>
<path d="M1325 400 c3 -5 11 -10 16 -10 6 0 7 5 4 10 -3 6 -11 10 -16 10 -6 0
-7 -4 -4 -10z"/>
<path d="M1410 399 c0 -5 5 -7 10 -4 6 3 10 8 10 11 0 2 -4 4 -10 4 -5 0 -10
-5 -10 -11z"/>
<path d="M1294 389 c1 -7 10 -13 19 -15 9 -1 15 2 11 7 -3 5 -9 7 -14 4 -4 -3
-11 0 -13 5 -3 6 -4 5 -3 -1z"/>
<path d="M1225 374 c-20 -15 -20 -16 -1 -29 10 -8 22 -12 27 -10 4 3 10 -5 12
-17 5 -21 5 -20 4 2 -1 14 -8 26 -14 26 -7 1 -18 2 -24 3 -5 0 -8 5 -4 11 3 5
11 8 18 6 7 -1 9 -1 4 1 -4 3 -5 9 -1 14 7 13 2 11 -21 -7z"/>
<path d="M1352 381 c-11 -7 -11 -9 0 -14 9 -3 15 1 15 9 0 8 -1 14 -1 14 -1 0
-7 -4 -14 -9z"/>
<path d="M1411 364 c0 -11 3 -14 6 -6 3 7 2 16 -1 19 -3 4 -6 -2 -5 -13z"/>
<path d="M1435 362 c3 -3 -1 -12 -7 -21 -8 -10 -4 -9 10 3 26 23 26 23 7 23
-8 0 -13 -3 -10 -5z"/>
<path d="M1190 355 c0 -5 5 -17 10 -25 5 -8 10 -10 10 -5 0 6 -5 17 -10 25 -5
8 -10 11 -10 5z"/>
<path d="M1312 331 c-11 -7 -11 -9 0 -14 9 -3 15 1 15 9 0 8 -1 14 -1 14 -1 0
-7 -4 -14 -9z"/>
<path d="M1217 316 c-3 -8 -3 -17 0 -20 10 -10 33 -7 33 4 0 5 -7 7 -15 4 -11
-5 -13 -2 -9 10 3 9 4 16 1 16 -3 0 -7 -6 -10 -14z"/>
<path d="M1358 319 c-6 -4 4 -6 21 -5 17 0 31 4 31 8 0 8 -37 6 -52 -3z"/>
<path d="M1116 283 c-6 -14 -5 -15 5 -6 7 7 10 15 7 18 -3 3 -9 -2 -12 -12z"/>
<path d="M1136 274 c-4 -9 -4 -19 -1 -22 2 -3 7 3 11 12 4 9 4 19 1 22 -2 3
-7 -3 -11 -12z"/>
<path d="M1297 276 c-4 -10 -1 -13 8 -9 8 3 12 9 9 14 -7 12 -11 11 -17 -5z"/>
<path d="M1264 248 c3 -15 26 -23 26 -8 0 6 -4 9 -9 6 -5 -4 -12 -1 -14 4 -3
6 -4 5 -3 -2z"/>
<path d="M1207 239 c7 -7 15 -10 18 -7 3 3 -2 9 -12 12 -14 6 -15 5 -6 -5z"/>
<path d="M1255 210 c-4 -6 -11 -7 -17 -4 -7 4 -8 2 -4 -5 6 -9 11 -9 22 0 14
11 18 19 10 19 -3 0 -8 -5 -11 -10z"/>
<path d="M1416 207 c3 -10 9 -15 12 -12 3 3 0 11 -7 18 -10 9 -11 8 -5 -6z"/>
<path d="M1354 196 c1 -8 5 -18 8 -22 4 -3 5 1 4 10 -1 8 -5 18 -8 22 -4 3 -5
-1 -4 -10z"/>
</g>
</svg>
