<?xml version="1.0" encoding="UTF-8" standalone="no"?>
<svg
   id="eh3DytXs9eA1"
   viewBox="0 0 526.42997 282.29998"
   shape-rendering="geometricPrecision"
   text-rendering="geometricPrecision"
   project-id="9e0aa775170d4119ad612ab833877efa"
   export-id="af7a93c78cb34d3ab2b1404bc3ff9db9"
   cached="false"
   version="1.1"
   sodipodi:docname="lir logo vector_export_small.svg"
   inkscape:version="1.4 (e7c3feb1, 2024-10-09)"
   width="526.42999"
   height="282.29999"
   xmlns:inkscape="http://www.inkscape.org/namespaces/inkscape"
   xmlns:sodipodi="http://sodipodi.sourceforge.net/DTD/sodipodi-0.dtd"
   xmlns="http://www.w3.org/2000/svg"
   xmlns:svg="http://www.w3.org/2000/svg">
  <sodipodi:namedview
     id="namedview5"
     pagecolor="#ffffff"
     bordercolor="#000000"
     borderopacity="0.25"
     inkscape:showpageshadow="2"
     inkscape:pageopacity="0.0"
     inkscape:pagecheckerboard="0"
     inkscape:deskcolor="#d1d1d1"
     inkscape:zoom="1.0428916"
     inkscape:cx="297.72989"
     inkscape:cy="267.52541"
     inkscape:window-width="1200"
     inkscape:window-height="1027"
     inkscape:window-x="123"
     inkscape:window-y="25"
     inkscape:window-maximized="0"
     inkscape:current-layer="g5" />
  <style
     id="style1"><![CDATA[
#eh3DytXs9eA3 {animation: eh3DytXs9eA3_c_o 4700ms linear 1 normal forwards}@keyframes eh3DytXs9eA3_c_o { 0% {opacity: 0} 4.255319% {opacity: 0;animation-timing-function: cubic-bezier(0.42,0,0.58,1)} 29.787234% {opacity: 1} 100% {opacity: 1}} #eh3DytXs9eA4 {animation: eh3DytXs9eA4_c_o 4700ms linear 1 normal forwards}@keyframes eh3DytXs9eA4_c_o { 0% {opacity: 0} 6.382979% {opacity: 0;animation-timing-function: cubic-bezier(0.42,0,0.58,1)} 36.170213% {opacity: 1} 100% {opacity: 1}} #eh3DytXs9eA5 {animation: eh3DytXs9eA5_c_o 4700ms linear 1 normal forwards}@keyframes eh3DytXs9eA5_c_o { 0% {opacity: 0} 31.914894% {opacity: 0;animation-timing-function: cubic-bezier(0.42,0,0.58,1)} 61.702128% {opacity: 1} 100% {opacity: 1}} #eh3DytXs9eA6 {animation: eh3DytXs9eA6_c_o 4700ms linear 1 normal forwards}@keyframes eh3DytXs9eA6_c_o { 0% {opacity: 0;animation-timing-function: cubic-bezier(0.42,0,0.58,1)} 23.404255% {opacity: 1} 100% {opacity: 1}} #eh3DytXs9eA7 {animation: eh3DytXs9eA7_c_o 4700ms linear 1 normal forwards}@keyframes eh3DytXs9eA7_c_o { 0% {opacity: 0} 4.255319% {opacity: 0;animation-timing-function: cubic-bezier(0.42,0,0.58,1)} 29.787234% {opacity: 1} 100% {opacity: 1}} #eh3DytXs9eA8 {animation: eh3DytXs9eA8_c_o 4700ms linear 1 normal forwards}@keyframes eh3DytXs9eA8_c_o { 0% {opacity: 0} 21.276596% {opacity: 0;animation-timing-function: cubic-bezier(0.42,0,0.58,1)} 48.93617% {opacity: 1} 100% {opacity: 1}} #eh3DytXs9eA9 {animation: eh3DytXs9eA9_c_o 4700ms linear 1 normal forwards}@keyframes eh3DytXs9eA9_c_o { 0% {opacity: 0;animation-timing-function: cubic-bezier(0.42,0,0.58,1)} 23.404255% {opacity: 1} 100% {opacity: 1}} #eh3DytXs9eA10 {animation: eh3DytXs9eA10_c_o 4700ms linear 1 normal forwards}@keyframes eh3DytXs9eA10_c_o { 0% {opacity: 0} 6.382979% {opacity: 0;animation-timing-function: cubic-bezier(0.42,0,0.58,1)} 34.042553% {opacity: 1} 100% {opacity: 1}} #eh3DytXs9eA11 {animation: eh3DytXs9eA11_c_o 4700ms linear 1 normal forwards}@keyframes eh3DytXs9eA11_c_o { 0% {opacity: 0} 21.276596% {opacity: 0;animation-timing-function: cubic-bezier(0.42,0,0.58,1)} 51.06383% {opacity: 1} 100% {opacity: 1}} #eh3DytXs9eA12 {animation: eh3DytXs9eA12_c_o 4700ms linear 1 normal forwards}@keyframes eh3DytXs9eA12_c_o { 0% {opacity: 0} 40.425532% {opacity: 0;animation-timing-function: cubic-bezier(0.42,0,0.58,1)} 80.851064% {opacity: 1} 100% {opacity: 1}} #eh3DytXs9eA13 {animation: eh3DytXs9eA13_c_o 4700ms linear 1 normal forwards}@keyframes eh3DytXs9eA13_c_o { 0% {opacity: 0} 53.191489% {opacity: 0;animation-timing-function: cubic-bezier(0.42,0,0.58,1)} 85.106383% {opacity: 1} 100% {opacity: 1}} #eh3DytXs9eA14 {animation: eh3DytXs9eA14_c_o 4700ms linear 1 normal forwards}@keyframes eh3DytXs9eA14_c_o { 0% {opacity: 0} 40.425532% {opacity: 0;animation-timing-function: cubic-bezier(0.42,0,0.58,1)} 80.851064% {opacity: 1} 100% {opacity: 1}} #eh3DytXs9eA15 {animation: eh3DytXs9eA15_c_o 4700ms linear 1 normal forwards}@keyframes eh3DytXs9eA15_c_o { 0% {opacity: 0} 29.787234% {opacity: 0;animation-timing-function: cubic-bezier(0.39,0.575,0.565,1)} 61.702128% {opacity: 1} 100% {opacity: 1}} #eh3DytXs9eA16 {animation: eh3DytXs9eA16_c_o 4700ms linear 1 normal forwards}@keyframes eh3DytXs9eA16_c_o { 0% {opacity: 0} 29.787234% {opacity: 0;animation-timing-function: cubic-bezier(0.42,0,0.58,1)} 61.702128% {opacity: 1} 100% {opacity: 1}} #eh3DytXs9eA17 {animation: eh3DytXs9eA17_c_o 4700ms linear 1 normal forwards}@keyframes eh3DytXs9eA17_c_o { 0% {opacity: 0} 17.021277% {opacity: 0;animation-timing-function: cubic-bezier(0.42,0,0.58,1)} 40.425532% {opacity: 1} 100% {opacity: 1}} #eh3DytXs9eA18 {animation: eh3DytXs9eA18_c_o 4700ms linear 1 normal forwards}@keyframes eh3DytXs9eA18_c_o { 0% {opacity: 0} 21.276596% {opacity: 0;animation-timing-function: cubic-bezier(0.42,0,0.58,1)} 46.808511% {opacity: 1} 100% {opacity: 1}} #eh3DytXs9eA21 {animation: eh3DytXs9eA21_c_o 4700ms linear 1 normal forwards}@keyframes eh3DytXs9eA21_c_o { 0% {opacity: 0} 72.340426% {opacity: 0} 100% {opacity: 1}} #eh3DytXs9eA22 {animation: eh3DytXs9eA22_c_o 4700ms linear 1 normal forwards}@keyframes eh3DytXs9eA22_c_o { 0% {opacity: 0} 72.340426% {opacity: 0} 100% {opacity: 1}} #eh3DytXs9eA23 {animation: eh3DytXs9eA23_c_o 4700ms linear 1 normal forwards}@keyframes eh3DytXs9eA23_c_o { 0% {opacity: 0} 72.340426% {opacity: 0} 100% {opacity: 1}} #eh3DytXs9eA24 {animation: eh3DytXs9eA24_c_o 4700ms linear 1 normal forwards}@keyframes eh3DytXs9eA24_c_o { 0% {opacity: 0} 72.340426% {opacity: 0} 100% {opacity: 1}} #eh3DytXs9eA31_tr {animation: eh3DytXs9eA31_tr__tr 4700ms linear 1 normal forwards}@keyframes eh3DytXs9eA31_tr__tr { 0% {transform: translate(135.33781px,207.03926px) rotate(720deg);animation-timing-function: cubic-bezier(0.415,0.08,0.115,0.955)} 100% {transform: translate(135.33781px,207.03926px) rotate(280.519481deg)}} #eh3DytXs9eA31 {animation: eh3DytXs9eA31_f_p 4700ms linear 1 normal forwards}@keyframes eh3DytXs9eA31_f_p { 0% {fill: #d2dbed} 100% {fill: #d2dbec}} #eh3DytXs9eA32_tr {animation: eh3DytXs9eA32_tr__tr 4700ms linear 1 normal forwards}@keyframes eh3DytXs9eA32_tr__tr { 0% {transform: translate(11.12px,29.9px) rotate(-720deg);animation-timing-function: cubic-bezier(0.415,0.08,0.115,0.955)} 100% {transform: translate(11.12px,29.9px) rotate(-280.519481deg)}}
]]></style>
  <defs
     id="defs1">
    <linearGradient
       id="eh3DytXs9eA25-fill"
       x1="0.5"
       y1="0"
       x2="0.5"
       y2="1"
       spreadMethod="pad"
       gradientUnits="objectBoundingBox">
      <stop
         id="eh3DytXs9eA25-fill-0"
         offset="0%"
         stop-color="rgba(255,255,255,0)" />
      <stop
         id="eh3DytXs9eA25-fill-1"
         offset="100%"
         stop-color="#010022" />
    </linearGradient>
  </defs>
  <g
     opacity="0.95"
     id="g1">
    <path
       id="eh3DytXs9eA3"
       d="m 24.22,191.93 c -9.63,0 -18.3,4.24 -24.22,10.96 v 8.84 l 11.88,6.86 c 2.14,-4.68 6.86,-7.94 12.34,-7.94 7.49,0 13.57,6.09 13.57,13.57 0,2.97 -0.52,5.83 -1.48,8.47 l 16.36,9.44 c 2.47,-5.47 3.84,-11.54 3.84,-17.91 0,-17.81 -14.48,-32.29 -32.29,-32.29 z"
       opacity="0"
       fill="#231f20" />
    <path
       id="eh3DytXs9eA4"
       d="m 24.22,169 c -8.68,0 -16.9,2.01 -24.22,5.61 v 22.33 c 6.45,-5.73 14.93,-9.22 24.22,-9.22 20.13,0 36.5,16.38 36.5,36.5 0,7.15 -1.57,13.94 -4.39,20.03 l 16.25,9.38 c 4.39,-8.88 6.85,-18.86 6.85,-29.41 C 79.43,193.77 54.66,169 24.21,169 Z"
       opacity="0"
       fill="#231f20" />
    <path
       id="eh3DytXs9eA5"
       d="m 108.27,99.6 c 25.41,9.19 52.87,7.94 77.3,-3.51 17.06,-8 31.23,-20.31 41.36,-35.66 l -16.28,-9.4 c -15.38,22.51 -41.09,35.88 -68.07,35.88 -9.28,0 -18.71,-1.58 -27.92,-4.92 l 1.43,-3.96 -1.44,3.96 C 90.74,73.34 72.49,55.94 62.19,34.68 l -16.31,9.41 c 12.94,25.94 35.01,45.58 62.41,55.5 z"
       opacity="0"
       fill="#231f20" />
    <path
       id="eh3DytXs9eA6"
       d="m 24.22,214.86 c -3.92,0 -7.28,2.43 -8.67,5.85 l 17.04,9.84 c 0.64,-2 0.99,-4.12 0.99,-6.32 0,-5.16 -4.2,-9.36 -9.36,-9.36 z"
       opacity="0"
       fill="#231f20" />
    <path
       id="eh3DytXs9eA7"
       d="m 131.67,34.91 c 12.85,4.65 26.78,0.61 35.28,-9.1 l -17.01,-9.82 c -2.16,1.37 -4.7,2.13 -7.3,2.13 -1.53,0 -3.09,-0.26 -4.61,-0.82 -8.05,-2.91 -13.7,-9.55 -15.71,-17.26 L 122.24,0 105.75,9.52 c 4.4,11.4 13.53,20.92 25.91,25.4 z"
       opacity="0"
       fill="#231f20" />
    <path
       id="eh3DytXs9eA8"
       d="m 206.99,48.93 -16.25,-9.39 c -5.83,8.03 -13.63,14.51 -22.85,18.84 -8.01,3.76 -16.57,5.64 -25.16,5.64 -6.83,0 -13.67,-1.19 -20.28,-3.58 C 104.62,53.99 90.38,41 82.36,23.87 c -0.1,-0.22 -0.2,-0.44 -0.29,-0.66 l -16.28,9.4 C 76,53.87 93.83,69.99 116.09,78.04 150.16,90.36 187.32,77.45 207,48.93 Z"
       opacity="0"
       fill="#231f20" />
    <path
       id="eh3DytXs9eA9"
       d="m 139.47,13.35 c 2.04,0.74 4.16,0.72 6.07,0.1 L 128.09,3.38 c 2.32,4.47 6.27,8.12 11.38,9.97 z"
       opacity="0"
       fill="#231f20" />
    <path
       id="eh3DytXs9eA10"
       d="m 123.87,56.47 c 13.88,5.03 28.88,4.35 42.22,-1.91 8.44,-3.96 15.58,-9.84 20.96,-17.15 l -16.4,-9.47 c -6.92,8.28 -17.25,13.1 -28.04,13.1 -4.12,0 -8.29,-0.7 -12.38,-2.18 C 116.88,34.03 106.98,23.87 102.06,11.64 L 85.7,21.09 c 0.14,0.33 0.29,0.66 0.45,0.99 7.55,16.12 20.95,28.33 37.72,34.39 z"
       opacity="0"
       fill="#231f20" />
    <path
       id="eh3DytXs9eA11"
       d="m 24.22,146.07 c -8.45,0 -16.59,1.35 -24.22,3.85 v 20.04 c 7.4,-3.33 15.6,-5.17 24.22,-5.17 32.77,0 59.43,26.66 59.43,59.43 0,11.32 -2.67,22.03 -7.4,31.53 l 16.23,9.37 c 6.32,-12.27 9.89,-26.17 9.89,-40.9 0,-43.1 -35.06,-78.15 -78.15,-78.15 z"
       transform="translate(0,-0.746384)"
       opacity="0"
       fill="#231f20" />
    <path
       id="eh3DytXs9eA12"
       d="m 206.51,115.77 c -33.85,23.66 -54.13,62.25 -54.15,103.86 0.06,1.53 0.08,3.06 0.08,4.59 h -2.19 l -2.02,0.07 v -0.07 c -0.05,-1.47 -0.07,-2.93 -0.08,-4.39 -1.09,-31.5 -13.85,-60.95 -36.22,-83.32 C 88.52,113.1 57.37,100.21 24.22,100.21 15.99,100.21 7.89,101 0,102.56 v 19.18 c 7.78,-1.84 15.89,-2.81 24.22,-2.81 58.06,0 105.29,47.23 105.29,105.29 0,19.66 -4.88,38.21 -13.52,54.48 l 6.25,3.6 32.13,-18.55 c -4.04,-12.57 -6.14,-25.84 -6.14,-39.44 h 4.21 c 0,12.84 1.94,25.38 5.67,37.29 l 16.73,-9.66 c -2.4,-8.81 -3.68,-18.07 -3.68,-27.63 0,-49.04 30.39,-91.11 73.33,-108.39 V 82.55 c -10.24,13.42 -23.08,24.69 -37.98,33.21 z"
       opacity="0"
       fill="#231f20" />
    <path
       id="eh3DytXs9eA13"
       d="m 189.92,123.76 c 0,0 -0.03,0.01 -0.04,0.02 -15.17,6.04 -31.1,9.07 -47.1,9.07 -11.16,0 -22.34,-1.47 -33.3,-4.44 1.85,1.65 3.66,3.36 5.43,5.13 18.02,18.02 30.02,40.48 34.96,64.93 0,0.01 0,0.02 0,0.03 4.68,-28.73 18.78,-54.99 40.04,-74.74 z"
       opacity="0"
       fill="#231f20" />
    <path
       id="eh3DytXs9eA14"
       d="m 230.57,62.54 c -10.55,16.09 -25.37,28.99 -43.22,37.36 -14.19,6.65 -29.36,10 -44.58,10 -12.09,0 -24.22,-2.11 -35.93,-6.34 C 78.5,93.3 55.65,73 42.21,46.21 L 0,70.57 v 27.7 C 7.9,96.77 16,96 24.22,96 c 27.94,0 54.5,8.85 76.47,25.24 31.12,11.19 64.7,9.64 94.61,-4.38 3.03,-1.42 5.99,-2.96 8.87,-4.6 0.04,-0.02 0.08,-0.05 0.13,-0.07 3.17,-2.2 6.44,-4.3 9.83,-6.24 v 0 c 0,0 0,0 0,0 11.9,-8.35 22.15,-18.68 30.37,-30.57 v -4.81 l -13.92,-8.03 z"
       transform="translate(0,0.746383)"
       opacity="0"
       fill="#231f20" />
    <path
       id="eh3DytXs9eA15"
       d="m 175.37,224.32 c 0,8.78 1.13,17.31 3.24,25.45 l 16.98,-9.8 c -0.99,-5.06 -1.5,-10.3 -1.5,-15.65 0,-36.08 20.46,-67.47 50.4,-83.16 v -20.67 c -40.56,17.02 -69.12,57.15 -69.12,103.83 z"
       opacity="0"
       fill="#231f20" />
    <path
       id="eh3DytXs9eA16"
       d="m 24.22,123.14 c -8.35,0 -16.45,1.02 -24.22,2.95 v 19.4 c 7.66,-2.36 15.8,-3.63 24.22,-3.63 45.41,0 82.36,36.95 82.36,82.36 0,15.49 -3.77,30.12 -10.45,43.01 l 16.22,9.36 c 8.27,-15.65 12.95,-33.48 12.95,-52.38 0,-55.74 -45.35,-101.08 -101.08,-101.08 z"
       opacity="0"
       fill="#231f20" />
    <path
       id="eh3DytXs9eA17"
       d="m 221.23,224.32 c 0,0.28 0,0.56 0,0.83 l 19.9,-11.49 c 0.77,-3.39 1.89,-6.64 3.35,-9.72 v -30.2 c -14.23,12.24 -23.26,30.37 -23.26,50.57 z"
       opacity="0"
       fill="#231f20"
       fill-rule="evenodd"
       stroke-width="0.56" />
    <path
       id="eh3DytXs9eA18"
       d="m 198.3,224.32 c 0,4.57 0.4,9.05 1.15,13.41 l 17.65,-10.19 c -0.06,-1.07 -0.08,-2.15 -0.08,-3.23 0,-22.74 10.77,-43.02 27.47,-56 v -22.37 c -27.53,15.31 -46.19,44.71 -46.19,78.37 z"
       transform="translate(-0.667698,1)"
       opacity="0"
       fill="#231f20" />
  </g>
  <g
     id="g3">
    <g
       id="g2">
      <path
         id="eh3DytXs9eA21"
         d="m 285.55,63.82 h 27.32 v 132.46 h 79.35 v 23.61 H 285.55 Z"
         opacity="0"
         fill="#231f20" />
      <path
         id="eh3DytXs9eA22"
         d="m 408.17,106.89 h 24.92 V 219.9 h -24.92 z"
         opacity="0"
         fill="#231f20" />
      <path
         id="eh3DytXs9eA23"
         d="m 460.19,106.89 h 23.39 v 21.86 h 0.44 c 0.73,-3.06 2.15,-6.04 4.26,-8.96 2.11,-2.91 4.66,-5.57 7.65,-7.98 2.98,-2.4 6.3,-4.33 9.95,-5.79 3.64,-1.46 7.36,-2.19 11.15,-2.19 2.91,0 4.92,0.08 6.01,0.22 1.09,0.15 2.22,0.29 3.39,0.44 v 24.04 c -1.75,-0.29 -3.54,-0.55 -5.36,-0.76 -1.82,-0.22 -3.61,-0.33 -5.36,-0.33 -4.23,0 -8.2,0.84 -11.91,2.51 -3.72,1.68 -6.96,4.15 -9.73,7.43 -2.77,3.28 -4.96,7.32 -6.56,12.13 -1.61,4.81 -2.4,10.35 -2.4,16.61 v 53.77 H 460.19 V 106.88 Z"
         opacity="0"
         fill="#231f20" />
    </g>
    <polygon
       id="eh3DytXs9eA24"
       points="433.31,98.19 433.31,75.42 407.94,93.23 407.94,98.19 "
       opacity="0" />
  </g>
  <g
     transform="matrix(2.4054,0,0,2.4054,186.362,673.512)"
     id="g5" />
</svg>
