<?xml version="1.0" encoding="UTF-8"?>
<svg id="Layer_1" xmlns="http://www.w3.org/2000/svg" version="1.1" viewBox="0 0 595.28 841.89">
  <!-- Generator: Adobe Illustrator 29.1.0, SVG Export Plug-In . SVG Version: 2.1.0 Build 142)  -->
  <defs>
    <style>
      .st0 {
        fill: #231f20;
      }
    </style>
  </defs>
  <g>
    <path class="st0" d="M24.22,191.93c-9.63,0-18.3,4.24-24.22,10.96v8.84l11.88,6.86c2.14-4.68,6.86-7.94,12.34-7.94,7.49,0,13.57,6.09,13.57,13.57,0,2.97-.52,5.83-1.48,8.47l16.36,9.44c2.47-5.47,3.84-11.54,3.84-17.91,0-17.81-14.48-32.29-32.29-32.29Z"/>
    <path class="st0" d="M24.22,169c-8.68,0-16.9,2.01-24.22,5.61v22.33c6.45-5.73,14.93-9.22,24.22-9.22,20.13,0,36.5,16.38,36.5,36.5,0,7.15-1.57,13.94-4.39,20.03l16.25,9.38c4.39-8.88,6.85-18.86,6.85-29.41,0-30.45-24.77-55.22-55.22-55.22Z"/>
    <path class="st0" d="M108.27,99.6c25.41,9.19,52.87,7.94,77.3-3.51,17.06-8,31.23-20.31,41.36-35.66l-16.28-9.4c-15.38,22.51-41.09,35.88-68.07,35.88-9.28,0-18.71-1.58-27.92-4.92l1.43-3.96-1.44,3.96c-23.91-8.65-42.16-26.05-52.46-47.31l-16.31,9.41c12.94,25.94,35.01,45.58,62.41,55.5Z"/>
    <path class="st0" d="M24.22,214.86c-3.92,0-7.28,2.43-8.67,5.85l17.04,9.84c.64-2,.99-4.12.99-6.32,0-5.16-4.2-9.36-9.36-9.36Z"/>
    <path class="st0" d="M131.67,34.91c12.85,4.65,26.78.61,35.28-9.1l-17.01-9.82c-2.16,1.37-4.7,2.13-7.3,2.13-1.53,0-3.09-.26-4.61-.82-8.05-2.91-13.7-9.55-15.71-17.26l-.08-.04-16.49,9.52c4.4,11.4,13.53,20.92,25.91,25.4Z"/>
    <path class="st0" d="M206.99,48.93l-16.25-9.39c-5.83,8.03-13.63,14.51-22.85,18.84-8.01,3.76-16.57,5.64-25.16,5.64-6.83,0-13.67-1.19-20.28-3.58-17.83-6.45-32.07-19.44-40.09-36.57-.1-.22-.2-.44-.29-.66l-16.28,9.4c10.21,21.26,28.04,37.38,50.3,45.43,34.07,12.32,71.23-.59,90.91-29.11Z"/>
    <path class="st0" d="M139.47,13.35c2.04.74,4.16.72,6.07.1l-17.45-10.07c2.32,4.47,6.27,8.12,11.38,9.97Z"/>
    <path class="st0" d="M123.87,56.47c13.88,5.03,28.88,4.35,42.22-1.91,8.44-3.96,15.58-9.84,20.96-17.15l-16.4-9.47c-6.92,8.28-17.25,13.1-28.04,13.1-4.12,0-8.29-.7-12.38-2.18-13.35-4.83-23.25-14.99-28.17-27.22l-16.36,9.45c.14.33.29.66.45.99,7.55,16.12,20.95,28.33,37.72,34.39Z"/>
    <path class="st0" d="M24.22,146.07c-8.45,0-16.59,1.35-24.22,3.85v20.04c7.4-3.33,15.6-5.17,24.22-5.17,32.77,0,59.43,26.66,59.43,59.43,0,11.32-2.67,22.03-7.4,31.53l16.23,9.37c6.32-12.27,9.89-26.17,9.89-40.9,0-43.1-35.06-78.15-78.15-78.15Z"/>
    <path class="st0" d="M189.92,123.76s-.03.01-.04.02c-15.17,6.04-31.1,9.07-47.1,9.07-11.16,0-22.34-1.47-33.3-4.44,1.85,1.65,3.66,3.36,5.43,5.13,18.02,18.02,30.02,40.48,34.96,64.93,0,.01,0,.02,0,.03,4.68-28.73,18.78-54.99,40.04-74.74Z"/>
    <path class="st0" d="M206.51,115.77c-33.85,23.66-54.13,62.25-54.15,103.86.06,1.53.08,3.06.08,4.59h-2.19l-2.02.07v-.07c-.05-1.47-.07-2.93-.08-4.39-1.09-31.5-13.85-60.95-36.22-83.32-23.41-23.41-54.56-36.3-87.71-36.3-8.23,0-16.33.79-24.22,2.35v19.18c7.78-1.84,15.89-2.81,24.22-2.81,58.06,0,105.29,47.23,105.29,105.29,0,19.66-4.88,38.21-13.52,54.48l6.25,3.6,32.13-18.55c-4.04-12.57-6.14-25.84-6.14-39.44h4.21c0,12.84,1.94,25.38,5.67,37.29l16.73-9.66c-2.4-8.81-3.68-18.07-3.68-27.63,0-49.04,30.39-91.11,73.33-108.39v-33.37c-10.24,13.42-23.08,24.69-37.98,33.21Z"/>
    <path class="st0" d="M230.57,62.54c-10.55,16.09-25.37,28.99-43.22,37.36-14.19,6.65-29.36,10-44.58,10-12.09,0-24.22-2.11-35.93-6.34-28.34-10.26-51.19-30.56-64.63-57.35L0,70.58v27.69c7.9-1.5,16-2.27,24.22-2.27,27.94,0,54.5,8.85,76.47,25.24,31.12,11.19,64.7,9.64,94.61-4.38,3.03-1.42,5.99-2.96,8.87-4.6.04-.02.08-.05.13-.07,3.17-2.2,6.44-4.3,9.83-6.24h0s0,0,0,0c11.9-8.35,22.15-18.68,30.37-30.57v-4.81l-13.92-8.03Z"/>
    <path class="st0" d="M175.37,224.32c0,8.78,1.13,17.31,3.24,25.45l16.98-9.8c-.99-5.06-1.5-10.3-1.5-15.65,0-36.08,20.46-67.47,50.4-83.16v-20.67c-40.56,17.02-69.12,57.15-69.12,103.83Z"/>
    <path class="st0" d="M24.22,123.14c-8.35,0-16.45,1.02-24.22,2.95v19.4c7.66-2.36,15.8-3.63,24.22-3.63,45.41,0,82.36,36.95,82.36,82.36,0,15.49-3.77,30.12-10.45,43.01l16.22,9.36c8.27-15.65,12.95-33.48,12.95-52.38,0-55.74-45.35-101.08-101.08-101.08Z"/>
    <path class="st0" d="M221.23,224.32c0,.28,0,.56,0,.83l19.9-11.49c.77-3.39,1.89-6.64,3.35-9.72v-30.2c-14.23,12.24-23.26,30.37-23.26,50.57Z"/>
    <path class="st0" d="M198.3,224.32c0,4.57.4,9.05,1.15,13.41l17.65-10.19c-.06-1.07-.08-2.15-.08-3.23,0-22.74,10.77-43.02,27.47-56v-22.37c-27.53,15.31-46.19,44.71-46.19,78.37Z"/>
  </g>
  <g>
    <g>
      <path class="st0" d="M285.55,63.82h27.32v132.46h79.35v23.61h-106.67V63.82Z"/>
      <path class="st0" d="M408.17,106.89h24.92v113.01h-24.92v-113.01Z"/>
      <path class="st0" d="M460.19,106.89h23.39v21.86h.44c.73-3.06,2.15-6.04,4.26-8.96,2.11-2.91,4.66-5.57,7.65-7.98,2.98-2.4,6.3-4.33,9.95-5.79,3.64-1.46,7.36-2.19,11.15-2.19,2.91,0,4.92.08,6.01.22,1.09.15,2.22.29,3.39.44v24.04c-1.75-.29-3.54-.55-5.36-.76-1.82-.22-3.61-.33-5.36-.33-4.23,0-8.2.84-11.91,2.51-3.72,1.68-6.96,4.15-9.73,7.43-2.77,3.28-4.96,7.32-6.56,12.13-1.61,4.81-2.4,10.35-2.4,16.61v53.77h-24.92v-113.01Z"/>
    </g>
    <polygon points="433.31 75.42 407.94 93.23 407.94 98.19 433.31 98.19 433.31 75.42"/>
  </g>
</svg>